<svg width="20" height="18" viewBox="0 0 20 18" fill="none" xmlns="http://www.w3.org/2000/svg">
<path d="M1.66669 6.35937C1.66669 5.2548 2.56212 4.35938 3.66669 4.35938H16.3334C17.4379 4.35938 18.3334 5.25481 18.3334 6.35937V7.157C18.3334 8.04022 17.754 8.81886 16.908 9.07265L11.1494 10.8002C10.3997 11.0252 9.60039 11.0252 8.85063 10.8002L3.09199 9.07265C2.24602 8.81886 1.66669 8.04022 1.66669 7.157V6.35937Z" stroke="#7E8189" stroke-width="1.5"/>
<path d="M10 8.6395L10 7.21094" stroke="#7E8189" stroke-width="1.5" stroke-linecap="round" stroke-linejoin="round"/>
<path d="M2.36118 8.64062L2.36118 12.4977C2.36118 14.7069 4.15204 16.4977 6.36118 16.4977H13.639C15.8481 16.4977 17.639 14.7069 17.639 12.4977V8.64062" stroke="#7E8189" stroke-width="1.5"/>
<path d="M12.7778 4.35713V3.5C12.7778 2.39543 11.8824 1.5 10.7778 1.5H9.22223C8.11766 1.5 7.22223 2.39543 7.22223 3.5L7.22223 4.35713" stroke="#7E8189" stroke-width="1.5"/>
</svg>
