<svg width="18" height="18" viewBox="0 0 18 18" fill="none" xmlns="http://www.w3.org/2000/svg">
<path d="M17.3327 17.9531H0.666016C0.324349 17.9531 0.0410156 17.6698 0.0410156 17.3281C0.0410156 16.9865 0.324349 16.7031 0.666016 16.7031H17.3327C17.6743 16.7031 17.9577 16.9865 17.9577 17.3281C17.9577 17.6698 17.6743 17.9531 17.3327 17.9531Z" fill="#7E8189"/>
<path d="M10.875 17.9557H7.125C6.78333 17.9557 6.5 17.6724 6.5 17.3307V2.33073C6.5 0.897396 7.29167 0.0390625 8.625 0.0390625H9.375C10.7083 0.0390625 11.5 0.897396 11.5 2.33073V17.3307C11.5 17.6724 11.2167 17.9557 10.875 17.9557ZM7.75 16.7057H10.25V2.33073C10.25 1.3724 9.8 1.28906 9.375 1.28906H8.625C8.2 1.28906 7.75 1.3724 7.75 2.33073V16.7057Z" fill="#7E8189"/>
<path d="M4.83333 17.9557H1.5C1.15833 17.9557 0.875 17.6724 0.875 17.3307V7.33073C0.875 5.8974 1.60833 5.03906 2.83333 5.03906H3.5C4.725 5.03906 5.45833 5.8974 5.45833 7.33073V17.3307C5.45833 17.6724 5.175 17.9557 4.83333 17.9557ZM2.125 16.7057H4.20833V7.33073C4.20833 6.28906 3.75 6.28906 3.5 6.28906H2.83333C2.58333 6.28906 2.125 6.28906 2.125 7.33073V16.7057Z" fill="#7E8189"/>
<path d="M16.4993 17.9531H13.166C12.8243 17.9531 12.541 17.6698 12.541 17.3281V11.4948C12.541 10.0615 13.2743 9.20312 14.4993 9.20312H15.166C16.391 9.20312 17.1243 10.0615 17.1243 11.4948V17.3281C17.1243 17.6698 16.841 17.9531 16.4993 17.9531ZM13.791 16.7031H15.8743V11.4948C15.8743 10.4531 15.416 10.4531 15.166 10.4531H14.4993C14.2493 10.4531 13.791 10.4531 13.791 11.4948V16.7031Z" fill="#7E8189"/>
</svg>
