<?xml version="1.0" standalone="no"?>
<!DOCTYPE svg PUBLIC "-//W3C//DTD SVG 20010904//EN"
 "http://www.w3.org/TR/2001/REC-SVG-20010904/DTD/svg10.dtd">
<svg version="1.0" xmlns="http://www.w3.org/2000/svg"
 width="1037.000000pt" height="1120.000000pt" viewBox="0 0 1037.000000 1120.000000"
 preserveAspectRatio="xMidYMid meet">

<g transform="translate(0.000000,1120.000000) scale(0.100000,-0.100000)"
fill="#000000" stroke="none">
<path d="M3561 10752 c-6 -12 -11 -30 -11 -41 0 -36 -43 -27 -71 14 -13 19
-30 35 -37 35 -7 0 4 -20 25 -45 20 -25 45 -45 55 -45 21 0 26 -48 6 -68 -6
-6 -11 -25 -10 -42 1 -37 -27 -106 -68 -167 -35 -51 -38 -63 -11 -39 26 23 94
164 97 201 2 17 7 50 11 75 8 41 11 45 36 43 36 -3 259 -112 252 -123 -3 -5 8
-18 25 -30 25 -18 29 -27 29 -68 -1 -47 -24 -94 -75 -152 -12 -14 -27 -42 -33
-64 -13 -48 -37 -76 -67 -76 -16 0 -32 -12 -49 -37 -14 -21 -25 -41 -25 -46 0
-5 -7 -15 -14 -23 -13 -12 -13 -21 -1 -60 7 -25 25 -63 39 -84 l25 -38 -38 -6
c-25 -4 -44 -15 -59 -36 -13 -16 -31 -30 -41 -30 -28 0 -106 82 -137 146 -16
32 -45 77 -65 99 -20 22 -40 51 -44 65 -10 35 -33 58 -85 88 -25 14 -67 43
-93 64 -54 42 -73 45 -122 23 -30 -15 -34 -15 -69 6 -20 12 -44 35 -52 53 -9
17 -30 45 -47 63 -17 18 -31 41 -32 52 -1 23 -23 51 -39 51 -6 0 -2 -7 8 -15
16 -12 17 -18 8 -27 -16 -16 -15 -28 1 -28 14 0 67 -62 90 -106 9 -18 33 -42
54 -54 32 -19 42 -21 69 -11 52 19 80 13 131 -28 27 -21 59 -42 72 -46 34 -11
91 -65 91 -87 0 -11 18 -39 40 -61 21 -23 53 -69 69 -102 35 -70 111 -152 149
-161 15 -4 36 -14 47 -24 11 -9 28 -22 38 -27 10 -5 33 -38 51 -74 37 -70 92
-118 137 -119 15 0 32 -6 38 -13 6 -8 29 -22 51 -32 26 -12 40 -25 40 -37 0
-10 7 -21 15 -24 15 -6 71 23 62 33 -3 2 -16 -3 -30 -12 -24 -15 -25 -15 -35
15 -6 16 -17 30 -25 30 -8 0 -31 11 -51 25 -20 14 -45 25 -54 25 -10 0 -38 13
-63 28 -33 22 -52 45 -78 95 -18 37 -41 69 -51 72 -9 3 -27 17 -40 30 l-24 26
25 23 c30 30 112 41 131 19 15 -19 103 -63 124 -63 15 0 50 -9 104 -28 8 -3
38 -7 65 -9 112 -8 139 -44 74 -102 -40 -35 -41 -38 -43 -108 -2 -40 0 -70 4
-68 4 3 15 -6 24 -20 19 -29 11 -32 -22 -10 -18 13 -21 14 -16 1 5 -12 27 -24
56 -30 9 -2 46 -45 69 -83 22 -36 36 -41 45 -18 4 8 13 15 21 15 8 0 13 6 10
13 -2 6 13 35 33 62 20 28 42 60 48 72 15 26 24 115 14 123 -4 3 -15 17 -25
32 -22 36 -66 58 -117 60 -48 2 -65 18 -57 57 5 26 3 29 -23 35 -23 4 -35 17
-55 57 -26 51 -26 51 -7 73 11 11 33 48 50 82 17 33 37 66 46 73 20 17 21 65
1 81 -10 8 -34 11 -69 8 -44 -4 -55 -1 -65 13 -6 10 -37 26 -68 34 -32 9 -75
23 -96 31 -21 8 -43 12 -48 9 -25 -16 -4 31 41 91 47 62 50 71 50 125 0 48 -4
61 -20 71 -11 7 -20 18 -20 23 0 22 -237 145 -280 145 -16 0 -17 5 -9 37 9 43
5 53 -10 25z m305 -540 c5 -5 37 -17 71 -27 41 -12 68 -26 78 -41 12 -19 20
-21 42 -15 70 19 124 -7 96 -46 -7 -10 -31 -50 -53 -90 -23 -39 -47 -77 -55
-83 -22 -18 -18 -39 15 -97 21 -36 37 -53 50 -53 11 0 20 -5 20 -11 0 -7 -8
-9 -22 -4 -13 4 -48 9 -78 11 -30 3 -74 11 -98 19 -23 8 -52 15 -63 15 -54 0
-179 92 -211 155 -32 61 -31 89 0 141 21 33 40 51 63 58 20 6 42 25 54 43 15
25 27 32 51 33 16 0 34 -4 40 -8z m372 -628 c22 -15 30 -57 14 -80 -16 -24
-51 -35 -74 -23 -30 16 -38 28 -38 61 0 28 31 58 60 58 9 0 26 -7 38 -16z"/>
<path d="M4000 9816 c0 -2 8 -10 18 -17 15 -13 16 -12 3 4 -13 16 -21 21 -21
13z"/>
<path d="M4395 10540 c-3 -5 -1 -10 4 -10 6 0 11 5 11 10 0 6 -2 10 -4 10 -3
0 -8 -4 -11 -10z"/>
<path d="M4350 10470 c-9 -6 -10 -10 -3 -10 6 0 15 5 18 10 8 12 4 12 -15 0z"/>
<path d="M4507 10389 c7 -7 15 -10 18 -7 3 3 -2 9 -12 12 -14 6 -15 5 -6 -5z"/>
<path d="M4275 10369 c-4 -6 -5 -12 -2 -15 2 -3 7 2 10 11 7 17 1 20 -8 4z"/>
<path d="M4596 10197 c3 -10 9 -15 12 -12 3 3 0 11 -7 18 -10 9 -11 8 -5 -6z"/>
<path d="M3376 10187 c3 -10 9 -15 12 -12 3 3 0 11 -7 18 -10 9 -11 8 -5 -6z"/>
<path d="M3420 10126 c0 -2 7 -9 15 -16 9 -7 15 -8 15 -2 0 5 -7 12 -15 16 -8
3 -15 4 -15 2z"/>
<path d="M4696 10027 c3 -10 9 -15 12 -12 3 3 0 11 -7 18 -10 9 -11 8 -5 -6z"/>
<path d="M2756 10013 c-6 -14 -5 -15 5 -6 7 7 10 15 7 18 -3 3 -9 -2 -12 -12z"/>
<path d="M4735 9991 c-3 -6 4 -18 15 -29 13 -12 18 -26 15 -38 -6 -18 -6 -18
5 -1 10 15 8 23 -9 41 -12 12 -18 26 -14 29 3 4 4 7 0 7 -3 0 -8 -4 -12 -9z"/>
<path d="M4704 9878 l-19 -23 25 20 c14 11 27 21 29 22 2 2 0 3 -6 3 -5 0 -18
-10 -29 -22z"/>
<path d="M2720 9841 c0 -6 4 -13 10 -16 6 -3 7 1 4 9 -7 18 -14 21 -14 7z"/>
<path d="M4660 9810 c-11 -22 -18 -40 -15 -40 2 0 14 18 25 40 11 22 18 40 15
40 -2 0 -14 -18 -25 -40z"/>
<path d="M2730 9801 c0 -6 4 -13 10 -16 6 -3 7 1 4 9 -7 18 -14 21 -14 7z"/>
<path d="M3444 9758 l-19 -23 23 19 c21 18 27 26 19 26 -2 0 -12 -10 -23 -22z"/>
<path d="M2766 9758 c3 -7 22 -26 42 -42 l37 -30 -40 42 c-42 45 -48 49 -39
30z"/>
<path d="M4610 9750 c-8 -5 -10 -10 -5 -10 6 0 17 5 25 10 8 5 11 10 5 10 -5
0 -17 -5 -25 -10z"/>
<path d="M2460 9728 c3 -3 20 -13 37 -22 25 -12 31 -13 27 -3 -3 8 -10 14 -17
14 -7 0 -21 4 -32 8 -11 5 -18 6 -15 3z"/>
<path d="M3397 9705 c-10 -14 -14 -25 -10 -25 4 0 16 12 26 25 10 14 14 25 10
25 -4 0 -16 -12 -26 -25z"/>
<path d="M2284 9704 c-18 -14 -18 -15 4 -4 12 6 28 8 34 4 7 -4 8 -3 4 4 -10
16 -18 15 -42 -4z"/>
<path d="M4150 9716 c0 -2 7 -7 16 -10 8 -3 12 -2 9 4 -6 10 -25 14 -25 6z"/>
<path d="M5490 9700 c-9 -6 -10 -10 -3 -10 6 0 15 5 18 10 8 12 4 12 -15 0z"/>
<path d="M4485 9659 c-33 -29 -45 -50 -27 -48 9 1 77 79 69 79 -4 0 -22 -14
-42 -31z"/>
<path d="M2863 9673 c9 -2 23 -2 30 0 6 3 -1 5 -18 5 -16 0 -22 -2 -12 -5z"/>
<path d="M2851 9629 c-1 -24 5 -42 18 -53 11 -10 23 -35 26 -57 4 -23 21 -57
42 -81 19 -23 48 -62 64 -85 24 -35 36 -43 60 -43 21 0 37 -8 52 -26 57 -69
135 -147 159 -160 38 -20 81 -17 111 6 14 11 31 20 39 20 8 0 61 -31 119 -70
57 -38 112 -70 121 -70 27 0 71 22 90 44 24 28 23 5 -2 -43 l-19 -39 22 -33
c12 -19 41 -43 63 -54 62 -30 98 -78 101 -136 2 -49 -3 -59 -69 -141 -17 -22
-28 -50 -32 -83 l-6 -50 13 52 c9 34 28 67 55 99 23 26 43 54 44 63 1 9 2 23
4 31 1 8 2 29 3 46 l1 31 58 -19 c31 -11 59 -21 60 -23 2 -2 -12 -37 -32 -78
-20 -42 -40 -95 -45 -118 -11 -48 -23 -59 -67 -59 -17 0 -37 -7 -44 -15 -7 -8
-19 -15 -28 -15 -8 0 -38 -11 -66 -24 -28 -13 -75 -29 -104 -37 -54 -13 -78
-9 -187 36 -27 11 -101 29 -162 39 -12 2 -47 26 -78 55 -31 28 -64 51 -73 51
-11 -1 -6 -7 13 -17 17 -8 48 -33 71 -55 39 -37 68 -49 184 -72 8 -2 29 -8 45
-15 17 -7 48 -20 70 -29 39 -16 230 -24 264 -12 9 3 15 -5 18 -25 2 -16 12
-38 23 -49 17 -17 17 -20 1 -55 -9 -20 -24 -48 -34 -62 -17 -26 -17 -28 13
-78 16 -29 30 -58 30 -66 0 -8 9 -38 20 -67 24 -65 25 -86 3 -110 -13 -15 -15
-23 -6 -36 8 -13 6 -23 -9 -45 -18 -24 -18 -34 -9 -100 15 -102 18 -137 13
-137 -2 0 -26 20 -54 44 -49 43 -52 44 -141 51 l-91 7 -218 130 c-226 135
-233 142 -208 189 13 23 7 24 -23 4 -29 -19 -114 -45 -148 -45 -30 0 -136 -37
-194 -68 -54 -29 -36 -28 28 2 72 33 154 59 169 54 7 -3 40 4 73 14 76 23 75
23 75 -6 0 -20 31 -42 221 -155 l221 -131 91 -7 91 -6 64 -61 c62 -60 112
-137 112 -174 0 -10 18 -33 41 -51 22 -18 47 -47 56 -65 9 -21 32 -41 62 -57
25 -13 63 -38 83 -56 20 -17 62 -39 95 -48 170 -50 185 -59 172 -113 -8 -35
-7 -39 30 -72 51 -45 87 -125 72 -158 -15 -31 -13 -42 2 -15 7 12 16 21 21 20
12 -3 139 -257 132 -264 -3 -3 -10 5 -15 18 -5 13 -18 32 -30 43 -11 10 -44
49 -73 87 -28 38 -54 67 -56 64 -6 -5 87 -126 114 -147 25 -20 74 -109 74
-135 1 -27 25 -54 43 -47 10 3 20 -3 28 -18 6 -13 15 -25 18 -28 3 -3 11 -14
17 -24 6 -11 17 -22 25 -24 8 -2 5 3 -6 12 -27 21 -2 21 33 -1 44 -27 101 -85
96 -97 -2 -6 7 -27 21 -46 13 -18 22 -36 19 -39 -3 -3 -9 1 -14 9 -6 9 -10 10
-10 3 0 -6 5 -15 10 -18 8 -5 40 -69 40 -80 0 -2 -18 -6 -40 -10 -22 -4 -68
-25 -102 -48 -35 -23 -74 -47 -88 -54 l-25 -13 28 5 c15 3 50 23 79 45 55 41
132 66 173 56 14 -4 26 -5 28 -4 2 2 28 -17 57 -42 30 -25 51 -40 47 -33 -4 7
0 14 10 17 18 6 58 66 44 66 -4 0 -14 -11 -21 -25 -21 -39 -47 -41 -84 -6 -18
17 -40 31 -51 31 -10 0 -15 3 -12 7 4 4 -3 18 -16 32 -13 14 -38 67 -56 117
l-32 90 -65 32 c-95 47 -156 109 -184 184 -13 35 -52 121 -87 193 -69 139 -70
145 -47 263 5 24 2 38 -10 51 -16 17 -16 19 0 25 16 6 16 8 2 22 -13 14 -22
14 -52 4 -45 -14 -49 -13 -78 28 -20 29 -40 39 -138 73 -63 22 -121 41 -127
44 -9 3 -5 13 12 29 14 14 25 33 25 43 -1 13 -5 11 -16 -9 -32 -60 -68 -53
-92 20 -7 19 -25 49 -42 68 -24 27 -30 44 -30 79 0 34 -5 47 -20 55 -11 6 -18
15 -15 21 4 5 -7 32 -24 59 -26 42 -31 62 -37 148 l-7 99 35 59 c53 92 56 107
61 302 2 101 7 186 11 189 6 7 31 -4 84 -38 17 -12 32 -17 32 -12 0 4 -25 23
-54 40 -70 43 -78 73 -30 118 38 36 64 90 70 147 2 21 8 47 14 58 7 13 7 20 1
20 -10 0 -22 -37 -36 -102 -3 -16 -11 -28 -18 -28 -6 0 -34 -11 -61 -25 -27
-14 -55 -25 -63 -25 -24 0 -14 49 28 138 22 48 41 91 42 96 1 5 -16 15 -38 22
-80 24 -133 52 -140 74 -4 12 -25 29 -48 40 -51 22 -89 60 -84 86 2 10 9 33
16 49 16 38 19 73 10 107 -13 47 20 64 136 71 55 4 115 9 133 13 32 7 34 8 28
43 -12 70 -12 76 4 73 12 -3 13 -1 2 10 -11 11 -16 10 -27 -5 -11 -16 -11 -24
1 -53 8 -19 12 -39 9 -44 -8 -13 -65 -13 -65 0 0 6 4 10 9 10 5 0 12 8 15 17
7 18 -7 8 -56 -40 -15 -14 -33 -18 -89 -16 -60 2 -73 -1 -94 -21 -18 -17 -23
-32 -22 -60 2 -50 -24 -87 -71 -101 -38 -11 -40 -10 -145 60 -58 39 -114 71
-124 71 -10 0 -29 -9 -43 -20 -28 -22 -61 -25 -93 -9 -45 24 -116 91 -147 139
-28 43 -36 50 -65 50 -30 0 -39 8 -95 84 -35 46 -62 87 -62 90 2 11 -30 81
-43 96 -7 8 -15 29 -18 45 -4 28 -4 28 -6 -6z m1264 -1098 c-8 -16 -27 -39
-42 -51 -16 -12 -30 -34 -33 -48 -5 -27 -14 -29 -86 -23 -8 1 -7 15 4 45 14
38 22 46 63 60 26 10 55 24 65 31 33 25 46 19 29 -14z m-169 -80 c-12 -34 -16
-36 -59 -38 -26 -1 -47 2 -47 6 0 5 -3 16 -6 25 -4 10 -1 16 9 16 8 0 20 6 26
14 7 9 29 14 51 14 l38 0 -12 -37z m-122 -16 c8 -22 -53 -47 -105 -43 l-44 3
65 26 c80 33 77 32 84 14z m96 -40 c0 -9 -40 -85 -44 -85 -15 0 -36 36 -36 61
0 27 2 29 40 29 22 0 40 -2 40 -5z m112 -192 c-2 -104 -8 -203 -14 -222 -6
-18 -27 -63 -48 -100 l-37 -66 8 -102 c6 -83 12 -108 33 -142 33 -52 33 -61
-3 -61 -60 0 -79 15 -85 67 -4 26 -11 81 -16 121 -9 68 -8 75 12 103 18 24 20
32 9 39 -11 6 -10 13 7 35 20 25 20 28 6 73 -9 26 -19 63 -23 82 -4 20 -20 57
-35 82 -15 26 -26 53 -24 60 2 7 28 59 58 115 l55 103 50 0 51 0 -4 -187z
m-42 -708 c21 13 50 -29 50 -71 0 -33 7 -51 35 -84 19 -23 35 -47 35 -53 0 -7
7 -24 14 -39 8 -16 13 -28 10 -28 -13 0 -84 54 -84 64 0 7 -22 34 -50 61 -27
27 -50 58 -50 70 0 11 -9 34 -20 50 -27 41 -25 45 15 34 19 -6 39 -7 45 -4z
m321 -345 c107 -39 145 -57 135 -67 -2 -3 -17 2 -33 10 -15 8 -53 20 -83 27
-73 17 -180 70 -141 70 5 0 60 -18 122 -40z m269 -100 c0 -6 -9 -14 -21 -18
-21 -8 -21 -9 6 -26 23 -15 26 -22 20 -49 -3 -18 -10 -57 -14 -87 -5 -30 -9
-49 -10 -42 -4 34 -45 99 -74 118 -29 19 -33 26 -29 58 4 31 7 35 26 31 11 -3
32 1 46 9 31 17 50 19 50 6z m180 -632 c0 -6 -7 -5 -15 2 -8 7 -15 17 -15 22
0 6 7 5 15 -2 8 -7 15 -17 15 -22z m220 -160 c0 -6 -7 -5 -15 2 -8 7 -15 17
-15 22 0 6 7 5 15 -2 8 -7 15 -17 15 -22z m90 -200 c0 -6 -6 -5 -15 2 -8 7
-15 14 -15 16 0 2 7 1 15 -2 8 -4 15 -11 15 -16z"/>
<path d="M3910 8030 c14 -11 29 -20 34 -20 5 0 -3 9 -17 20 -14 11 -29 20 -34
20 -4 0 3 -9 17 -20z"/>
<path d="M2640 9640 c0 -5 7 -7 15 -4 8 4 15 8 15 10 0 2 -7 4 -15 4 -8 0 -15
-4 -15 -10z"/>
<path d="M3662 9621 c-10 -6 -7 -10 12 -13 21 -4 24 -3 15 8 -13 16 -11 16
-27 5z"/>
<path d="M3870 9600 c-8 -5 -11 -12 -8 -16 4 -3 14 1 23 10 18 17 9 21 -15 6z"/>
<path d="M3930 9606 c0 -1 11 -15 25 -30 14 -15 25 -23 25 -18 0 4 -9 18 -20
30 -19 20 -30 27 -30 18z"/>
<path d="M5408 9589 c-21 -11 -38 -22 -38 -24 0 -3 18 4 40 15 22 11 40 23 40
25 0 7 0 7 -42 -16z"/>
<path d="M4465 9589 c-4 -6 -5 -12 -2 -15 2 -3 7 2 10 11 7 17 1 20 -8 4z"/>
<path d="M4372 9566 c7 -8 17 -12 22 -9 4 3 2 9 -5 14 -22 13 -31 11 -17 -5z"/>
<path d="M5199 9533 c-13 -16 -12 -17 4 -4 9 7 17 15 17 17 0 8 -8 3 -21 -13z"/>
<path d="M4416 9517 c3 -10 9 -15 12 -12 3 3 0 11 -7 18 -10 9 -11 8 -5 -6z"/>
<path d="M3998 9513 c7 -3 16 -2 19 1 4 3 -2 6 -13 5 -11 0 -14 -3 -6 -6z"/>
<path d="M4435 9490 c-3 -5 0 -10 9 -10 8 0 17 -6 19 -12 4 -8 6 -9 6 -2 1 18
-26 37 -34 24z"/>
<path d="M3470 9470 c0 -5 5 -10 10 -10 6 0 10 5 10 10 0 6 -4 10 -10 10 -5 0
-10 -4 -10 -10z"/>
<path d="M3680 9460 c0 -5 7 -7 15 -4 8 4 15 8 15 10 0 2 -7 4 -15 4 -8 0 -15
-4 -15 -10z"/>
<path d="M4405 9448 l-20 -21 23 12 c12 6 22 16 22 21 0 13 -2 12 -25 -12z"/>
<path d="M3650 9425 c0 -8 5 -15 10 -15 6 0 10 7 10 15 0 8 -4 15 -10 15 -5 0
-10 -7 -10 -15z"/>
<path d="M4761 9426 c14 -15 20 -16 35 -6 18 11 18 11 0 6 -10 -4 -26 -1 -35
6 -14 11 -14 10 0 -6z"/>
<path d="M4354 9396 c-12 -14 -18 -30 -14 -37 5 -8 10 -5 15 10 3 11 10 21 14
21 4 0 8 7 8 15 0 8 -1 15 -1 15 -1 0 -10 -11 -22 -24z"/>
<path d="M4804 9406 c-10 -8 -17 -16 -14 -19 3 -2 14 4 24 14 23 22 18 25 -10
5z"/>
<path d="M4578 9353 c7 -3 16 -2 19 1 4 3 -2 6 -13 5 -11 0 -14 -3 -6 -6z"/>
<path d="M4652 9344 c-7 -8 -8 -14 -3 -14 10 0 25 19 20 25 -2 1 -10 -3 -17
-11z"/>
<path d="M4890 9341 c0 -6 4 -13 10 -16 6 -3 7 1 4 9 -7 18 -14 21 -14 7z"/>
<path d="M3850 9323 c0 -13 3 -23 8 -24 4 0 15 -2 24 -4 11 -2 15 2 11 11 -3
8 -9 12 -13 9 -5 -3 -13 3 -19 12 -9 16 -10 16 -11 -4z"/>
<path d="M3781 9314 c0 -11 3 -14 6 -6 3 7 2 16 -1 19 -3 4 -6 -2 -5 -13z"/>
<path d="M4108 9318 c10 -13 10 -17 0 -21 -7 -2 1 -4 18 -3 21 1 30 5 26 14
-2 7 -7 11 -10 8 -2 -3 -14 0 -26 6 -18 10 -19 9 -8 -4z"/>
<path d="M4720 9326 c0 -2 7 -7 16 -10 8 -3 12 -2 9 4 -6 10 -25 14 -25 6z"/>
<path d="M4928 9313 c7 -3 16 -2 19 1 4 3 -2 6 -13 5 -11 0 -14 -3 -6 -6z"/>
<path d="M3780 9261 c0 -6 4 -13 10 -16 6 -3 7 1 4 9 -7 18 -14 21 -14 7z"/>
<path d="M4436 9245 c4 -8 11 -15 16 -15 6 0 5 6 -2 15 -7 8 -14 15 -16 15 -2
0 -1 -7 2 -15z"/>
<path d="M4340 9242 c0 -11 50 -56 50 -45 0 5 -11 19 -25 31 -14 12 -25 19
-25 14z"/>
<path d="M4157 9219 c7 -7 15 -10 18 -7 3 3 -2 9 -12 12 -14 6 -15 5 -6 -5z"/>
<path d="M4500 9224 c0 -5 7 -19 16 -30 8 -10 13 -14 10 -7 -4 6 1 19 10 27
14 15 14 16 0 16 -9 0 -16 -6 -16 -12 0 -9 -4 -8 -10 2 -5 8 -10 10 -10 4z"/>
<path d="M4205 9210 c-3 -6 1 -7 9 -4 18 7 21 14 7 14 -6 0 -13 -4 -16 -10z"/>
<path d="M4110 9206 c0 -3 9 -10 20 -16 11 -6 20 -8 20 -6 0 3 -9 10 -20 16
-11 6 -20 8 -20 6z"/>
<path d="M4490 9180 c0 -5 -10 -10 -22 -11 -22 0 -22 -1 -3 -8 11 -5 23 -4 26
2 4 5 13 6 20 1 12 -6 12 -5 0 9 -15 19 -21 21 -21 7z"/>
<path d="M4206 9146 c6 -15 34 -30 34 -18 0 4 -9 13 -20 19 -16 11 -18 10 -14
-1z"/>
<path d="M4390 9120 c0 -5 7 -10 16 -10 8 0 12 5 9 10 -3 6 -10 10 -16 10 -5
0 -9 -4 -9 -10z"/>
<path d="M4540 9120 c0 -6 4 -9 9 -6 5 4 12 1 14 -4 3 -6 4 -5 3 2 -3 15 -26
23 -26 8z"/>
<path d="M4030 9111 c0 -6 4 -12 8 -15 5 -3 9 1 9 9 0 8 -4 15 -9 15 -4 0 -8
-4 -8 -9z"/>
<path d="M4365 9110 c3 -5 8 -10 11 -10 2 0 4 5 4 10 0 6 -5 10 -11 10 -5 0
-7 -4 -4 -10z"/>
<path d="M4621 9083 c-10 -26 -10 -27 4 -9 8 11 15 23 15 28 0 15 -7 8 -19
-19z"/>
<path d="M4282 9041 c-11 -6 -10 -10 3 -15 14 -5 15 -9 5 -21 -7 -8 -8 -15 -4
-15 5 0 15 9 22 20 10 17 10 20 -5 20 -15 0 -16 2 -3 10 8 5 11 10 5 10 -5 0
-16 -4 -23 -9z"/>
<path d="M4356 9005 c-9 -24 -8 -25 10 -18 9 3 20 0 25 -8 5 -8 9 -9 9 -3 0 6
-8 19 -19 28 -17 15 -19 15 -25 1z"/>
<path d="M3705 8970 c3 -5 8 -10 11 -10 2 0 4 5 4 10 0 6 -5 10 -11 10 -5 0
-7 -4 -4 -10z"/>
<path d="M3510 8947 c14 -14 26 -24 28 -22 7 7 -9 25 -31 37 -20 10 -20 9 3
-15z"/>
<path d="M4480 8956 c0 -2 7 -9 15 -16 9 -7 15 -8 15 -2 0 5 -7 12 -15 16 -8
3 -15 4 -15 2z"/>
<path d="M4566 8916 c3 -8 13 -17 22 -21 13 -5 13 -2 -3 15 -21 24 -26 25 -19
6z"/>
<path d="M4480 8910 c-9 -6 -10 -10 -3 -10 6 0 15 5 18 10 8 12 4 12 -15 0z"/>
<path d="M4619 8881 c8 -5 10 -14 6 -22 -6 -11 -5 -11 5 -2 14 12 6 33 -13 33
-8 0 -7 -3 2 -9z"/>
<path d="M4130 8810 c0 -5 5 -10 11 -10 5 0 7 5 4 10 -3 6 -8 10 -11 10 -2 0
-4 -4 -4 -10z"/>
<path d="M4460 8810 c8 -5 20 -10 25 -10 6 0 3 5 -5 10 -8 5 -19 10 -25 10 -5
0 -3 -5 5 -10z"/>
<path d="M4106 8795 c-9 -26 -7 -32 5 -12 6 10 9 21 6 23 -2 3 -7 -2 -11 -11z"/>
<path d="M4304 8795 c-13 -11 -14 -14 -4 -13 8 2 18 7 22 12 4 6 14 4 25 -5
16 -13 17 -13 4 4 -16 21 -22 21 -47 2z"/>
<path d="M4223 8763 c-24 -5 -30 -18 -13 -28 6 -3 10 -1 10 4 0 6 6 11 14 11
8 0 18 5 21 10 3 6 3 9 -2 9 -4 -1 -18 -4 -30 -6z"/>
<path d="M4390 8762 c0 -5 14 -19 32 -32 l31 -23 -19 26 c-19 27 -44 43 -44
29z"/>
<path d="M4260 8670 c0 -5 5 -10 11 -10 5 0 7 5 4 10 -3 6 -8 10 -11 10 -2 0
-4 -4 -4 -10z"/>
<path d="M4295 8650 c-3 -5 -1 -10 4 -10 6 0 11 5 11 10 0 6 -2 10 -4 10 -3 0
-8 -4 -11 -10z"/>
<path d="M4330 8626 c0 -2 7 -7 16 -10 8 -3 12 -2 9 4 -6 10 -25 14 -25 6z"/>
<path d="M4430 8615 c0 -8 2 -15 4 -15 2 0 6 7 10 15 3 8 1 15 -4 15 -6 0 -10
-7 -10 -15z"/>
<path d="M4365 8558 l-20 -21 23 12 c12 6 22 16 22 21 0 13 -2 12 -25 -12z"/>
<path d="M4304 8524 c-18 -14 -18 -14 6 -3 31 14 36 19 24 19 -6 0 -19 -7 -30
-16z"/>
<path d="M4225 8470 c-3 -6 1 -7 9 -4 18 7 21 14 7 14 -6 0 -13 -4 -16 -10z"/>
<path d="M5100 6014 c0 -19 124 -140 175 -171 11 -7 28 -12 38 -13 17 0 65
-37 56 -43 -2 -1 -27 -21 -56 -45 -28 -23 -61 -42 -72 -42 -11 0 -23 -4 -26
-10 -4 -6 6 -7 27 -3 18 3 58 28 89 55 l57 49 38 -16 c22 -9 62 -31 89 -50 28
-19 61 -36 75 -39 14 -3 39 -9 55 -14 17 -5 39 -8 49 -6 10 1 36 -11 57 -28
30 -24 37 -36 33 -53 -3 -13 0 -36 8 -51 24 -51 12 -90 -38 -125 -24 -16 -58
-35 -74 -41 -17 -5 -30 -13 -30 -17 0 -5 -21 -29 -47 -55 l-48 -47 38 -35 c36
-34 46 -54 28 -54 -4 0 -24 -39 -44 -87 -38 -92 -40 -114 -22 -239 5 -39 0
-73 -20 -150 -49 -183 -48 -200 22 -233 76 -35 145 -107 155 -159 5 -27 4 -51
-3 -63 -13 -25 -8 -72 9 -75 7 -1 8 0 2 3 -13 6 -13 49 0 73 6 11 6 36 1 65
-11 58 -69 122 -151 164 -54 29 -55 30 -54 73 1 23 13 90 28 147 25 94 27 110
18 180 -5 42 -9 92 -7 111 2 32 43 142 59 157 3 3 6 -32 6 -78 1 -57 4 -79 10
-68 5 9 8 67 6 129 -4 112 -9 129 -43 130 -22 0 -14 14 35 61 51 50 119 92
132 84 5 -3 12 0 16 6 5 8 3 9 -6 4 -9 -5 -11 -4 -6 4 4 6 12 9 17 5 16 -9 40
17 34 37 -3 9 -3 29 1 43 5 21 9 24 24 16 16 -8 17 -15 9 -42 -16 -53 -2 -102
39 -141 20 -19 48 -51 62 -71 80 -119 159 -190 277 -250 17 -8 33 -21 36 -28
2 -7 8 -10 12 -6 4 4 -5 18 -20 33 -16 14 -30 23 -33 20 -3 -3 -19 6 -36 19
-17 12 -47 31 -66 41 -45 22 -111 99 -185 213 -5 8 -25 29 -42 45 -29 26 -33
35 -33 82 0 30 5 57 10 60 17 11 11 23 -16 29 -19 5 -24 11 -19 25 3 11 2 22
-3 25 -6 3 -9 0 -8 -7 0 -6 -3 -14 -9 -17 -13 -7 -32 49 -20 58 21 15 13 32
-20 46 -19 8 -35 22 -35 30 0 10 -16 16 -57 19 -80 7 -113 16 -148 42 -34 24
-100 60 -130 70 -15 4 -16 8 -6 14 10 7 10 9 -3 14 -8 3 -17 1 -19 -6 -3 -8
-10 -7 -24 6 -11 9 -27 17 -37 17 -25 0 -58 19 -51 31 4 5 3 8 -2 7 -9 -3
-100 67 -120 92 -6 8 -18 24 -27 35 -8 11 -16 15 -16 9z"/>
<path d="M5320 5866 c0 -2 7 -7 16 -10 8 -3 12 -2 9 4 -6 10 -25 14 -25 6z"/>
<path d="M8420 5679 c0 -5 5 -7 10 -4 6 3 10 8 10 11 0 2 -4 4 -10 4 -5 0 -10
-5 -10 -11z"/>
<path d="M5826 5464 c-4 -9 -4 -19 -1 -22 2 -3 7 3 11 12 4 9 4 19 1 22 -2 3
-7 -3 -11 -12z"/>
<path d="M5515 5243 c-11 -3 -29 -13 -40 -23 -11 -9 -27 -19 -35 -22 -9 -3
-28 -30 -44 -59 -16 -30 -45 -71 -64 -91 -20 -21 -31 -38 -25 -38 14 0 71 70
103 128 19 34 38 52 77 72 73 37 80 46 28 33z"/>
<path d="M5956 5043 c-6 -14 -5 -15 5 -6 7 7 10 15 7 18 -3 3 -9 -2 -12 -12z"/>
<path d="M6260 4930 c0 -33 -1 -33 -44 -72 -22 -21 -37 -38 -33 -38 5 0 15 7
23 15 8 8 24 21 35 29 19 13 40 86 25 86 -3 0 -6 -9 -6 -20z"/>
<path d="M6176 4788 c-3 -13 -5 -32 -5 -43 1 -11 5 -2 10 19 10 42 6 62 -5 24z"/>
<path d="M6327 4794 c-3 -4 1 -13 9 -21 8 -8 11 -19 8 -25 -4 -7 -2 -8 4 -4 9
5 9 13 1 29 -15 28 -15 28 -22 21z"/>
<path d="M6206 4713 c-6 -14 -5 -15 5 -6 7 7 10 15 7 18 -3 3 -9 -2 -12 -12z"/>
<path d="M4986 4697 c3 -10 9 -15 12 -12 3 3 0 11 -7 18 -10 9 -11 8 -5 -6z"/>
<path d="M6142 4691 c-12 -10 -22 -23 -22 -29 0 -5 -6 -12 -12 -15 -7 -2 -21
-44 -31 -93 -24 -115 -30 -126 -80 -150 -26 -12 -48 -32 -57 -51 -19 -40 -111
-137 -172 -183 -52 -38 -56 -46 -59 -105 -3 -50 -8 -60 -22 -43 -7 7 -11 11
-10 9 2 -2 -2 -10 -7 -17 -8 -9 -6 -12 7 -10 18 1 20 -3 22 -54 0 -16 10 -37
20 -47 15 -14 20 -31 19 -69 -1 -52 0 -55 69 -134 l32 -36 -14 -62 c-16 -69
-10 -96 33 -144 13 -14 22 -32 20 -40 -3 -7 3 -37 13 -66 31 -90 42 -170 28
-203 -6 -16 -18 -29 -25 -29 -8 0 -14 -7 -14 -15 0 -8 -5 -15 -11 -15 -5 0 -7
5 -3 11 4 8 0 8 -15 0 -25 -14 -37 -35 -46 -83 -5 -24 -13 -38 -26 -41 -10 -3
-19 -11 -19 -17 0 -10 4 -10 15 0 20 17 27 9 11 -12 -12 -16 -21 -10 -97 63
-46 45 -105 92 -131 105 -27 13 -48 29 -48 34 0 6 -4 10 -10 10 -22 0 6 -33
44 -51 22 -11 74 -51 115 -89 l73 -69 -36 -44 c-32 -39 -36 -51 -36 -99 0 -58
20 -121 43 -135 20 -12 28 -40 18 -66 -5 -12 -46 -59 -91 -104 -79 -79 -83
-82 -121 -77 -22 3 -51 9 -65 14 -21 8 -32 5 -70 -24 -25 -19 -58 -38 -74 -41
-17 -4 -42 -21 -57 -39 -36 -43 -84 -58 -183 -58 -105 0 -133 -8 -178 -56 -23
-25 -50 -42 -72 -47 -19 -3 -44 -9 -55 -12 -18 -5 -17 -3 5 22 14 15 38 33 53
41 31 16 67 69 67 97 0 10 11 34 25 54 13 20 22 39 18 42 -3 3 -8 0 -10 -7 -3
-7 -16 -26 -29 -41 -13 -16 -22 -36 -18 -44 9 -24 -20 -59 -103 -123 -43 -32
-89 -70 -103 -84 -14 -14 -51 -45 -83 -69 -68 -52 -86 -74 -34 -44 l36 22 -3
-67 c-2 -37 -9 -80 -16 -97 -8 -16 -14 -50 -14 -74 -1 -24 -6 -46 -13 -48 -13
-5 -19 12 -28 78 -5 42 -3 48 30 83 20 21 33 41 30 45 -4 3 -15 -5 -25 -19
-22 -29 -37 -21 -20 10 8 15 9 25 2 32 -7 7 -13 -2 -18 -28 -3 -22 -10 -46
-15 -55 -4 -8 -4 -32 1 -52 7 -34 6 -36 -11 -26 -15 7 -21 6 -25 -6 -7 -18
-24 -20 -24 -2 0 6 -7 24 -14 40 -8 15 -10 27 -5 27 5 0 15 -11 21 -25 6 -14
14 -25 18 -25 13 0 33 30 26 37 -4 4 -11 1 -16 -7 -6 -9 -10 -10 -10 -3 0 6
-18 29 -40 51 -28 29 -45 39 -60 35 -11 -3 -20 -1 -21 3 0 5 -2 16 -5 24 -29
109 -28 107 -2 142 14 18 47 56 74 85 103 109 116 124 110 130 -3 4 -30 -19
-59 -51 -28 -32 -75 -83 -104 -113 l-52 -55 -12 46 c-7 30 -21 53 -38 65 -41
29 -219 114 -191 92 14 -11 28 -21 33 -21 18 0 87 -52 82 -60 -3 -5 0 -7 7 -5
8 3 14 -2 15 -12 5 -45 21 -106 22 -83 1 14 -3 40 -8 58 -5 17 -8 32 -6 32 16
0 55 -26 55 -36 0 -7 7 -34 16 -60 9 -25 17 -56 20 -68 2 -11 7 -34 11 -51 4
-16 7 -32 8 -35 8 -38 19 -51 38 -46 12 3 29 -2 39 -11 22 -19 24 -37 3 -30
-8 4 -18 1 -21 -5 -5 -8 -10 -5 -15 8 -7 17 -8 17 -8 -3 -1 -25 31 -63 52 -63
6 1 2 9 -10 19 -28 24 -29 31 -3 31 25 0 48 -49 29 -61 -8 -4 -5 -9 9 -13 17
-6 19 -11 12 -37 -5 -16 -9 -32 -9 -35 0 -3 -12 -14 -26 -26 -18 -14 -34 -18
-53 -14 l-27 5 26 -12 c24 -11 25 -15 15 -42 -21 -58 -45 -82 -86 -89 -22 -3
-40 -10 -40 -14 0 -5 18 -6 40 -3 43 6 80 45 100 105 6 19 30 45 60 66 46 33
61 50 42 50 -4 0 -14 -6 -21 -12 -11 -11 -12 -8 -6 12 4 14 9 27 12 30 8 9 38
-18 41 -38 2 -13 9 -19 17 -16 7 3 16 1 20 -5 3 -6 -1 -11 -11 -11 -16 0 -12
-14 4 -15 18 -2 52 -17 52 -24 0 -4 -9 -16 -20 -26 -11 -10 -20 -23 -20 -28 0
-15 49 33 56 55 6 19 44 26 44 8 0 -6 -8 -10 -17 -8 -12 2 -18 -3 -17 -14 3
-67 5 -78 15 -78 7 0 10 14 7 36 -4 35 -3 37 42 56 33 14 52 29 62 51 l16 32
-3 -39 c-3 -35 -24 -73 -76 -137 -27 -33 -19 -63 21 -81 17 -7 30 -19 30 -26
0 -7 -4 -11 -9 -8 -4 3 -6 -6 -3 -20 4 -22 2 -25 -18 -22 -22 3 -27 12 -32 66
-1 13 -8 28 -15 34 -7 6 -13 16 -13 24 0 7 -5 16 -11 20 -8 5 -10 -1 -7 -19 4
-20 0 -27 -16 -31 -11 -3 -21 -4 -21 -3 -1 1 -8 20 -16 42 -13 34 -20 40 -47
43 -24 2 -32 -1 -32 -13 0 -8 -12 -34 -27 -58 -40 -62 -51 -80 -61 -102 -6
-11 -24 -37 -41 -59 -17 -21 -31 -45 -31 -52 0 -16 -9 -17 -29 -5 -17 11 -80
-5 -104 -27 -18 -16 -18 -15 -12 11 5 19 3 27 -6 28 -8 1 -36 2 -64 4 -27 1
-57 6 -65 9 -10 4 -46 -18 -100 -62 -74 -59 -88 -66 -106 -57 -42 21 -55 37
-43 51 6 8 16 14 22 14 5 0 26 15 46 33 38 34 54 37 124 21 15 -3 27 -2 27 3
0 5 -6 10 -12 11 -40 4 -79 21 -113 49 -21 18 -36 35 -32 39 3 3 27 9 52 11
25 3 48 10 51 15 4 6 -5 8 -22 4 -84 -17 -93 -17 -104 4 -10 18 -8 20 30 20
22 0 40 4 40 9 0 6 -42 10 -95 9 -84 0 -95 -2 -100 -19 -4 -10 -16 -24 -28
-30 -12 -7 -25 -18 -30 -25 -4 -7 -33 -15 -65 -19 -31 -3 -72 -7 -90 -10 -31
-4 -33 -1 -61 58 -50 107 -61 139 -61 172 0 24 -7 37 -25 49 -22 15 -25 23
-25 80 0 83 20 145 64 199 26 32 36 54 36 80 0 25 5 37 18 40 13 4 11 5 -5 6
-23 1 -27 -6 -23 -48 1 -13 -11 -39 -28 -60 -52 -65 -65 -100 -70 -196 -4 -90
-4 -91 22 -108 17 -12 26 -26 26 -45 0 -23 20 -87 72 -225 l10 -28 77 6 c54 5
72 3 61 -4 -8 -6 -21 -11 -29 -11 -7 0 -22 -10 -33 -22 -10 -12 -26 -23 -34
-24 -21 -3 -44 -24 -44 -40 0 -8 -4 -14 -10 -14 -17 0 -10 -14 17 -34 14 -11
23 -15 20 -9 -4 6 11 20 36 33 23 12 70 37 104 56 l61 35 68 -76 c37 -41 76
-75 86 -75 23 0 23 -12 -1 -34 -17 -16 -34 -17 -121 -14 -57 3 -106 10 -113
17 -6 6 -15 11 -20 11 -5 0 2 -9 16 -20 21 -17 40 -20 127 -20 91 0 104 2 119
21 16 20 17 20 49 -20 32 -40 32 -41 10 -42 -17 -1 -18 -3 -5 -6 20 -5 20 -8
7 -34 -14 -24 -33 -25 -26 -1 8 23 -25 55 -51 50 -15 -3 -13 -7 11 -18 46 -23
43 -58 -8 -81 -23 -10 -58 -36 -79 -57 -34 -35 -42 -39 -70 -32 -55 13 -90 30
-104 50 -8 11 -18 20 -23 20 -6 0 -31 16 -57 36 -26 20 -58 40 -70 45 -13 5
-26 16 -29 24 -4 10 -20 15 -49 15 -53 0 -102 20 -134 54 l-24 26 31 0 c18 0
32 4 32 10 0 8 -98 3 -109 -6 -2 -1 13 -10 33 -18 20 -8 36 -19 36 -24 0 -18
79 -52 123 -52 28 0 49 -6 58 -16 7 -8 29 -24 48 -34 20 -10 61 -41 91 -70 56
-52 106 -80 144 -80 15 0 36 -24 79 -89 32 -48 66 -92 77 -97 18 -9 18 -11
-11 -57 -16 -26 -44 -56 -62 -67 -83 -50 -170 -147 -174 -194 -2 -17 -5 -50
-7 -72 -3 -37 -1 -42 18 -43 11 0 62 -3 111 -7 l90 -6 52 35 c47 32 73 40 158
51 20 3 46 23 85 64 30 33 78 71 108 86 38 19 52 32 53 49 2 45 -3 83 -16 114
-8 20 -10 35 -4 38 15 10 10 28 -6 21 -8 -3 -18 1 -22 8 -10 18 -110 96 -122
96 -8 0 -71 66 -71 75 0 2 16 -5 35 -16 19 -12 41 -19 49 -16 7 3 20 -3 29
-14 9 -10 24 -19 32 -19 8 0 15 -4 15 -10 0 -5 3 -9 8 -8 19 5 51 -14 45 -28
-8 -22 15 -17 27 6 6 11 9 20 8 21 -2 0 -10 2 -19 4 -29 5 -94 39 -102 52 -4
7 -19 13 -32 13 -19 0 -77 20 -103 36 -2 2 0 18 4 36 7 32 8 32 14 8 4 -14 2
-29 -4 -33 -7 -5 -5 -7 4 -4 8 2 23 0 34 -5 11 -6 22 -6 28 0 6 6 -1 11 -20
15 -22 5 -28 11 -27 29 1 17 9 24 28 26 14 2 46 21 71 43 24 22 47 35 50 30 4
-5 0 -15 -7 -23 -27 -27 -69 -88 -61 -88 4 0 19 14 33 31 l26 31 0 -66 c0 -36
-2 -66 -5 -66 -11 1 -37 26 -43 42 -6 18 -55 54 -62 46 -11 -11 104 -118 127
-118 2 0 3 50 4 110 0 71 4 114 12 122 9 9 12 9 12 0 0 -6 25 -36 55 -67 30
-30 56 -61 57 -70 0 -8 1 -21 2 -27 2 -28 41 -53 81 -53 43 0 65 -9 65 -27 0
-6 -7 -5 -17 3 -16 13 -17 12 -4 -4 8 -9 16 -15 19 -12 3 3 11 -4 19 -15 15
-21 33 -27 33 -11 0 5 -7 17 -16 25 -8 9 -10 16 -4 16 7 0 9 19 4 63 -4 34 -6
90 -5 124 1 35 -3 63 -8 63 -15 0 -18 -89 -6 -167 12 -75 9 -87 -12 -54 -7 11
-26 21 -45 23 -28 3 -32 7 -33 32 0 23 -6 30 -35 40 -29 9 -40 22 -68 79 -19
37 -38 67 -42 67 -5 0 3 -21 17 -48 l25 -47 -32 34 c-50 53 -28 100 59 127 45
13 181 18 163 6 -10 -7 -10 -11 3 -22 13 -11 15 -9 15 9 0 13 6 21 16 21 9 0
18 9 21 20 6 23 14 25 32 7 11 -10 13 -9 7 1 -5 7 2 16 18 22 14 5 26 16 26
25 0 18 65 22 76 4 3 -6 15 -9 25 -6 10 3 19 1 21 -4 5 -13 78 -41 78 -29 0 5
-7 10 -16 10 -13 0 -14 3 -5 14 16 19 0 28 -42 26 -52 -3 -67 -1 -67 10 0 7
14 9 38 5 23 -4 32 -3 24 3 -10 7 -10 11 2 21 8 7 20 10 25 6 6 -3 17 10 25
29 14 33 16 35 47 26 18 -5 35 -7 38 -5 2 3 -2 5 -10 6 -8 0 0 5 16 10 23 7
33 5 41 -6 6 -8 14 -12 17 -8 11 10 8 25 -3 18 -5 -3 -10 -1 -10 4 0 6 7 11
15 11 8 0 15 7 15 15 0 20 19 19 58 -5 25 -16 32 -17 32 -5 0 20 32 35 58 28
12 -3 22 -1 22 5 0 19 98 44 178 46 12 0 22 4 22 9 0 12 -145 -1 -177 -16 -13
-5 -23 -14 -23 -19 0 -4 -7 -8 -15 -8 -22 0 -8 26 22 39 14 6 44 27 67 46 44
36 108 54 176 51 29 -1 37 -6 46 -31 13 -38 7 -45 -44 -48 -23 -1 -42 -7 -42
-13 0 -7 15 -10 41 -7 32 4 40 2 34 -7 -5 -9 -4 -11 4 -6 6 4 8 12 5 18 -4 6
1 8 14 4 25 -8 37 8 18 26 -7 8 -17 29 -21 48 -7 30 -4 36 30 66 21 18 54 40
74 49 24 11 49 37 74 75 21 33 43 57 50 55 7 -3 24 -6 39 -9 38 -6 76 -34 81
-59 3 -18 5 -17 6 6 1 31 -38 61 -94 71 -27 5 -32 10 -28 27 3 11 -2 39 -10
62 -17 47 -41 156 -35 162 2 3 42 7 88 11 47 3 87 10 91 15 3 5 24 -9 47 -31
23 -22 46 -40 53 -40 11 0 72 -40 77 -51 1 -3 14 -4 29 -1 18 3 24 1 19 -7 -4
-6 -3 -11 3 -11 5 0 12 6 14 13 4 8 6 8 6 0 1 -7 14 -10 38 -7 56 7 51 12 -24
19 -77 9 -146 41 -208 98 -43 40 -42 42 35 51 25 4 54 7 65 9 31 4 65 26 65
42 0 19 32 35 71 35 18 0 52 12 78 29 32 20 65 31 109 36 l62 7 17 -39 c9 -21
16 -42 15 -46 -2 -5 2 -6 8 -2 5 3 10 2 10 -4 0 -5 14 -16 30 -25 17 -8 30
-10 30 -5 0 4 -13 15 -29 24 -42 21 -50 53 -20 76 13 10 29 17 36 14 6 -2 14
3 17 11 3 9 12 14 18 12 7 -3 17 -1 23 4 5 5 25 18 44 29 51 31 32 31 -29 1
-122 -60 -140 -66 -158 -48 -10 8 -35 15 -57 15 -81 -1 -123 14 -136 47 -5 16
-16 24 -31 23 l-23 0 23 -9 c12 -5 22 -16 22 -23 0 -20 24 -38 63 -47 23 -6
26 -8 9 -9 -12 -1 -41 -14 -63 -31 -27 -19 -52 -29 -73 -28 -41 1 -76 -10 -76
-26 0 -20 -31 -43 -67 -50 -18 -3 -46 -9 -63 -12 -20 -4 -30 -2 -30 5 0 21 42
96 61 109 25 17 24 31 -5 83 -18 32 -27 69 -33 138 -9 90 -8 95 19 152 15 32
32 79 38 105 6 26 23 72 37 103 15 31 26 63 26 71 -1 8 -18 53 -37 98 -37 86
-38 102 -7 102 21 0 99 -36 123 -57 11 -10 45 -16 98 -19 44 -2 91 -9 103 -15
39 -21 102 -82 115 -113 24 -55 51 -76 100 -76 36 0 43 -3 38 -16 -3 -8 -2
-13 3 -10 5 3 11 -13 14 -37 3 -24 14 -48 25 -58 11 -9 22 -27 25 -40 4 -22 4
-23 6 -2 0 12 -10 39 -24 59 -14 20 -25 51 -25 68 0 44 -9 52 -60 55 -51 3
-72 18 -91 64 -14 34 -45 64 -112 110 -35 24 -49 27 -118 27 -43 0 -81 5 -84
10 -4 6 -28 21 -54 35 -49 25 -61 40 -61 79 0 68 -72 284 -103 311 -7 6 -13
41 -13 82 -2 106 -10 135 -49 180 -29 34 -35 49 -35 88 0 32 -6 55 -20 72 -21
27 -27 83 -9 83 6 0 23 -9 37 -21 25 -19 37 -20 167 -17 l141 3 33 -27 c31
-26 39 -28 134 -29 56 -1 106 -1 111 0 5 1 15 -7 23 -19 8 -11 23 -20 34 -20
25 0 71 -23 88 -44 8 -9 20 -16 29 -16 12 0 10 6 -8 25 l-23 25 41 0 c23 0 45
1 49 3 4 1 11 -11 15 -28 6 -29 6 -29 5 5 l-2 35 -62 0 c-34 1 -59 -3 -57 -7
8 -12 -4 -10 -37 7 -16 9 -34 13 -39 10 -5 -3 -15 3 -22 15 -12 18 -23 20
-124 20 -107 0 -112 1 -147 29 -42 33 -103 46 -144 30 -40 -15 -171 -8 -197
11 -12 9 -33 22 -48 29 -24 12 -28 19 -25 52 3 41 51 102 104 134 16 10 48 44
73 77 65 87 95 118 113 118 20 0 57 47 57 74 1 56 38 161 69 193 36 38 37 55
3 24z m-389 -789 c14 -15 17 -30 13 -58 -5 -33 -2 -44 22 -72 35 -40 66 -92
55 -92 -4 1 -28 26 -52 56 -39 48 -44 61 -42 100 1 32 -5 53 -19 71 -12 15
-20 41 -20 63 0 57 14 58 20 2 3 -28 13 -59 23 -70z m103 -372 c-3 -16 4 -34
20 -53 13 -16 31 -54 39 -85 9 -31 22 -77 30 -102 7 -25 16 -71 19 -102 6 -53
5 -58 -13 -58 -17 0 -19 5 -15 33 3 17 -2 64 -11 102 -9 39 -22 93 -28 122 -7
28 -22 62 -33 75 -34 37 -44 79 -31 128 l12 42 8 -38 c4 -22 6 -50 3 -64z m87
-487 c53 -122 53 -125 25 -190 -14 -32 -34 -85 -43 -118 -9 -32 -28 -81 -42
-109 -25 -49 -25 -51 -13 -145 9 -68 20 -107 36 -133 29 -46 29 -50 3 -74 -11
-10 -31 -42 -44 -70 -29 -64 -52 -76 -67 -34 -13 38 -29 39 -22 1 8 -40 -29
-65 -80 -55 -20 3 -39 10 -42 15 -7 12 -54 11 -54 -1 0 -5 7 -10 15 -10 15 0
21 -16 8 -22 -5 -1 -29 -28 -54 -58 -36 -42 -57 -58 -92 -68 -25 -8 -51 -11
-58 -6 -7 4 -9 3 -5 -4 10 -17 -14 -18 -210 -9 -153 7 -191 6 -236 -7 -29 -8
-54 -14 -56 -12 -7 8 58 94 116 155 58 62 63 64 114 67 49 3 158 -9 200 -22
15 -4 15 -8 5 -24 -13 -21 2 -59 44 -110 23 -28 17 -14 -17 42 l-23 37 19 57
c23 67 26 95 4 42 -15 -34 -18 -36 -42 -27 -15 6 -73 13 -128 16 l-102 6 9 26
c5 15 18 31 28 36 113 60 131 64 131 24 0 -10 5 -19 10 -19 13 0 13 43 -1 57
-12 12 38 53 65 53 20 0 112 46 121 59 12 21 35 -2 35 -35 0 -19 2 -34 4 -34
2 0 13 -3 23 -7 17 -6 17 -5 -1 15 -26 29 -15 37 23 17 17 -8 31 -12 31 -8 0
4 5 2 12 -5 17 -17 33 -15 18 3 -7 8 -20 15 -29 15 -49 1 -40 19 64 123 58 59
105 111 105 117 0 5 11 10 25 10 14 0 25 5 25 10 0 6 -10 8 -24 4 -21 -5 -27
0 -45 40 -21 48 -38 63 -25 24 8 -27 2 -23 -16 11 -8 15 -8 21 -1 17 17 -11
13 10 -4 24 -8 7 -15 20 -15 29 0 25 41 84 86 124 l41 37 23 -25 c13 -14 28
-25 34 -25 6 0 -3 13 -20 29 l-32 29 18 52 c19 56 26 66 62 85 34 19 33 20 61
-42z m-193 -119 c0 -4 -18 -26 -40 -50 -47 -51 -54 -36 -9 19 28 34 49 47 49
31z m-300 -504 c0 -12 -93 -60 -116 -60 -9 0 6 15 32 34 49 34 84 45 84 26z
m75 -10 c3 -5 1 -10 -4 -10 -6 0 -11 5 -11 10 0 6 2 10 4 10 3 0 8 -4 11 -10z
m-245 -74 c0 -2 -7 -7 -16 -10 -8 -3 -12 -2 -9 4 6 10 25 14 25 6z m-150 -87
c-14 -5 -32 -24 -40 -42 -11 -23 -23 -33 -42 -35 -16 -2 -28 -8 -28 -14 0 -6
9 -8 20 -5 19 5 29 -7 13 -15 -5 -1 -20 -20 -35 -40 -16 -20 -36 -39 -45 -42
-10 -3 -28 -25 -41 -48 -36 -68 -56 -87 -96 -91 -19 -2 -42 -9 -50 -16 -11 -9
-15 -6 -18 20 -6 42 27 79 71 79 17 0 31 5 31 10 0 6 -17 10 -38 10 -31 0 -41
-5 -52 -25 -7 -14 -20 -25 -28 -25 -9 0 -13 -3 -10 -6 4 -3 2 -20 -3 -37 -6
-18 -10 -60 -10 -94 0 -36 -5 -65 -11 -69 -8 -5 -9 -2 -5 9 3 10 2 17 -4 17
-17 0 -23 -32 -11 -62 9 -24 8 -30 -9 -38 -13 -8 -25 -7 -39 0 -11 6 -20 8
-20 4 0 -3 -6 -2 -12 3 -7 5 -24 10 -37 11 -13 0 -25 2 -26 4 -5 5 13 131 30
202 14 60 21 74 62 110 25 22 50 46 56 52 15 14 37 -27 37 -67 0 -16 5 -29 11
-29 11 0 7 58 -4 77 -4 6 -10 29 -16 52 -7 33 -6 40 3 32 8 -7 24 -7 44 -2 17
5 33 7 36 4 2 -3 49 -1 103 4 l98 8 -78 5 -78 5 36 42 c39 46 43 47 180 50 59
1 73 -1 55 -8z m-420 -125 c0 -25 -114 -128 -118 -108 -3 10 20 38 55 70 32
30 59 54 61 54 1 0 2 -7 2 -16z m924 -131 c24 -91 31 -153 17 -153 -6 0 -11
-5 -11 -11 0 -22 -72 -104 -113 -128 -23 -14 -53 -35 -67 -48 -22 -20 -26 -21
-41 -7 -11 10 -19 12 -24 5 -3 -6 0 -11 7 -12 7 -1 -5 -5 -27 -10 -29 -7 -53
-5 -95 7 -30 10 -59 21 -64 26 -6 4 -18 8 -28 8 -10 0 -18 6 -18 14 0 18 17
30 24 17 8 -13 113 -51 153 -57 18 -2 33 1 33 6 0 8 -36 15 -62 11 -6 0 -118
48 -127 55 -6 5 99 104 110 104 13 0 119 82 119 92 0 5 7 8 15 8 8 0 12 6 9
15 -4 11 6 16 45 21 28 4 51 11 51 16 0 10 62 88 71 88 3 0 13 -30 23 -67z
m-294 -65 c0 -4 7 -5 16 -1 29 11 -4 -36 -39 -57 -18 -11 -45 -35 -60 -55 -15
-19 -33 -35 -40 -35 -6 0 -21 -12 -33 -27 -19 -24 -27 -27 -78 -24 -37 2 -56
-1 -56 -9 0 -8 10 -9 30 -5 16 4 40 3 52 -1 23 -7 23 -7 2 -15 -32 -11 -106 1
-100 17 7 17 -14 30 -23 15 -8 -12 -62 1 -87 21 -6 4 -19 6 -27 2 -14 -5 -15
-1 -8 23 5 15 12 36 16 46 4 9 3 17 -2 17 -12 0 -29 -31 -37 -67 -6 -25 -17
-37 -52 -54 -25 -12 -48 -19 -51 -15 -3 3 0 19 7 35 6 16 8 36 4 43 -5 7 7 0
25 -15 19 -15 36 -26 39 -23 2 3 -10 17 -27 32 l-32 27 22 23 c12 13 39 35 60
50 21 14 36 31 32 37 -3 5 -2 7 4 4 5 -3 29 0 54 8 32 11 89 14 216 12 95 -1
173 -5 173 -9z m50 -23 c-7 -9 -15 -13 -18 -10 -3 2 1 11 8 20 7 9 15 13 18
10 3 -2 -1 -11 -8 -20z m-540 -10 c-7 -9 -15 -13 -18 -10 -3 3 -13 -9 -23 -25
-18 -29 -47 -43 -35 -17 3 6 9 20 12 29 3 9 18 21 33 27 38 14 45 13 31 -4z
m-92 -50 c-1 -30 -5 -55 -9 -55 -4 0 -5 15 -4 33 2 17 3 42 4 55 1 12 3 22 6
22 2 0 4 -25 3 -55z m-269 -59 c10 -12 8 -13 -8 -9 -12 3 -21 9 -21 14 0 14
16 11 29 -5z m251 -36 c-24 -19 -40 -25 -40 -15 0 5 51 34 60 34 3 0 -6 -8
-20 -19z m250 -51 c0 -5 -7 -5 -17 -2 -11 4 -14 3 -9 -5 4 -6 -6 -4 -23 5 -16
10 -28 21 -25 24 5 9 74 -12 74 -22z m-100 14 c0 -5 -18 -33 -40 -63 -29 -39
-51 -58 -77 -67 l-38 -13 43 4 c23 2 42 0 42 -5 0 -5 -10 -9 -22 -9 -25 0 -68
-37 -68 -58 0 -13 -3 -12 -18 1 -10 10 -24 17 -30 17 -21 0 -13 21 32 81 24
32 46 63 48 68 7 22 129 63 128 44z m60 -42 c0 -19 -51 -63 -67 -57 -8 4 -23
1 -31 -6 -9 -7 -5 3 8 22 46 66 51 70 71 59 11 -5 19 -13 19 -18z m175 -10
c39 -11 20 -18 -72 -25 -53 -3 -73 -1 -76 8 -14 35 59 44 148 17z m139 -59
c-16 -8 -38 -23 -49 -32 -11 -10 -45 -35 -75 -55 -49 -33 -55 -35 -66 -20 -7
10 -18 14 -25 9 -8 -4 -10 -3 -5 5 4 6 3 17 -2 24 -5 7 -14 26 -20 44 -13 38
-5 43 73 43 43 0 56 4 65 19 10 19 11 19 72 -1 l61 -21 -29 -15z m146 8 c0 -5
-10 -10 -22 -9 -22 0 -22 1 -3 9 11 5 21 9 23 9 1 1 2 -3 2 -9z m-410 -47 c0
-29 -7 -29 -30 -1 -16 21 -16 23 -1 34 19 15 31 2 31 -33z m-137 9 c-3 -12 -9
-19 -14 -16 -5 3 -3 14 3 24 15 24 19 21 11 -8z m94 -70 c-25 -15 -35 -62 -13
-62 18 0 -40 -27 -74 -35 -30 -7 -32 -6 -28 22 2 20 -1 27 -11 25 -12 -3 -12
-1 0 15 8 10 21 24 29 30 13 11 13 14 0 23 -13 9 -13 10 0 10 9 0 16 10 17 22
1 13 10 28 19 35 14 10 22 6 51 -29 l34 -41 -24 -15z m-404 23 c19 -45 30 -54
42 -35 10 16 33 12 39 -7 3 -10 8 -34 11 -53 4 -25 3 -31 -5 -20 -5 8 -10 23
-10 33 0 9 -4 17 -10 17 -12 0 -13 -40 -1 -59 6 -10 -5 -31 -37 -72 -36 -47
-50 -58 -66 -53 -16 4 -17 3 -7 -4 18 -13 7 -42 -16 -42 -16 1 -49 44 -82 108
-12 22 -11 22 54 22 49 0 66 3 62 13 -3 8 -24 11 -70 8 -37 -1 -67 1 -67 5 0
5 23 43 50 84 27 41 50 81 50 88 0 6 10 12 23 12 17 0 26 -11 40 -45z m254 -3
c14 -24 4 -41 -27 -44 -31 -4 -39 28 -13 47 24 19 26 18 40 -3z m222 -29 l22
-38 -26 28 c-14 15 -25 32 -25 38 0 17 8 9 29 -28z m-34 -3 c3 -5 -1 -10 -9
-10 -9 0 -16 5 -16 10 0 6 4 10 9 10 6 0 13 -4 16 -10z m76 -17 c13 -16 12
-17 -3 -4 -17 13 -22 21 -14 21 2 0 10 -8 17 -17z m-1259 -12 c21 -24 14 -31
-30 -31 -28 0 -43 -8 -69 -36 -32 -36 -34 -36 -53 -19 -20 18 -19 18 8 41 15
13 30 24 34 24 4 0 10 9 13 20 9 27 74 28 97 1z m986 -8 c-10 -2 -26 -2 -35 0
-10 3 -2 5 17 5 19 0 27 -2 18 -5z m-958 -46 c1 -7 11 -21 24 -31 l24 -20 -34
-32 c-19 -17 -48 -37 -65 -44 -29 -13 -32 -12 -65 25 -19 21 -34 40 -34 42 0
2 15 19 33 38 40 41 116 56 117 22z m970 6 c-1 -38 -59 -86 -118 -97 -31 -5
-32 -5 -27 24 3 17 1 30 -5 30 -5 0 -10 -3 -11 -7 -4 -47 -52 -113 -80 -113
-11 0 -19 5 -19 10 0 6 4 10 9 10 5 0 24 23 42 50 28 41 42 53 77 63 24 6 48
20 53 29 13 25 79 25 79 1z m-1163 -48 c8 -9 14 -17 12 -18 -2 -1 -24 -13 -49
-26 -25 -13 -63 -34 -86 -46 -76 -42 -100 -42 -70 -2 12 16 28 23 58 26 4 1 9
10 13 21 4 12 21 24 45 30 22 6 42 15 45 20 8 14 14 13 32 -5z m785 -127 c-5
-5 -21 3 -36 17 -15 14 -35 25 -44 24 -13 0 -12 -2 4 -9 40 -16 34 -27 -23
-46 -33 -11 -71 -33 -91 -53 -18 -18 -35 -31 -37 -29 -2 2 5 28 15 58 15 44
24 56 46 62 35 9 44 3 36 -24 -3 -13 -1 -19 5 -15 6 4 13 24 17 45 3 22 15 51
27 66 l21 27 34 -57 c19 -32 31 -61 26 -66z m-329 59 c48 0 47 0 47 -44 0 -4
-6 -8 -13 -8 -6 0 -22 -6 -35 -13 -19 -11 -26 -10 -44 3 -30 21 -35 19 -41
-12 -3 -16 -20 -43 -36 -61 -17 -18 -31 -40 -31 -48 0 -23 -13 -17 -54 25
l-39 39 38 34 c21 18 45 37 54 42 9 5 29 20 45 33 18 15 35 21 45 17 9 -4 37
-7 64 -7z m194 -13 c-3 -4 -21 -9 -38 -13 -27 -5 -35 -13 -42 -41 l-8 -33 -13
24 c-16 30 -12 37 28 55 31 13 85 19 73 8z m-123 -56 c20 -21 25 -45 13 -62
-11 -15 -16 -14 -49 9 -21 14 -38 30 -38 35 0 6 32 23 58 29 2 1 9 -5 16 -11z
m286 -8 c0 -5 -5 -10 -11 -10 -5 0 -7 5 -4 10 3 6 8 10 11 10 2 0 4 -4 4 -10z
m-424 -44 c-7 -22 -24 -45 -37 -52 -14 -8 -18 -13 -9 -13 24 0 50 24 50 46 0
11 6 26 14 32 12 10 23 6 57 -18 31 -23 37 -31 22 -31 -22 0 -61 -25 -52 -34
3 -4 22 0 41 8 20 9 39 12 43 8 5 -4 5 -1 1 6 -4 6 -2 12 3 12 47 0 -64 -122
-120 -134 -51 -10 -58 -8 -74 24 -14 27 -14 30 0 30 20 0 79 30 72 36 -3 3
-25 -1 -49 -9 -44 -15 -65 -13 -38 3 8 5 15 14 15 20 0 10 68 109 72 106 1 -1
-4 -19 -11 -40z m373 40 c-2 -2 -22 -6 -44 -10 -29 -5 -36 -4 -25 3 13 10 79
16 69 7z m-460 -182 c26 -44 20 -56 -27 -48 -49 9 -76 23 -44 24 16 0 26 9 33
30 6 17 12 30 14 30 2 0 13 -16 24 -36z m-84 -85 c4 -18 16 -35 31 -41 27 -13
30 -26 9 -42 -7 -6 -22 -43 -32 -82 -17 -65 -20 -70 -39 -62 -11 5 -43 44 -72
86 l-52 76 38 39 c62 65 107 75 117 26z m73 -15 c-6 -13 -15 -24 -19 -24 -14
0 -39 31 -39 50 0 16 4 17 34 8 31 -10 33 -13 24 -34z m36 6 c-4 -18 -1 -36 6
-45 7 -8 8 -15 2 -15 -22 0 -32 27 -21 59 14 39 20 40 13 1z m406 -9 c0 -3 -5
-13 -10 -21 -9 -13 -12 -12 -25 4 -21 28 -19 34 10 28 14 -2 25 -7 25 -11z
m-368 -93 c9 -9 25 -29 35 -45 34 -52 57 -73 80 -73 54 0 76 -32 92 -133 7
-44 6 -49 -17 -67 -13 -11 -29 -20 -34 -20 -10 0 -70 -41 -80 -55 -9 -13 -13
-7 -24 39 -7 29 -17 43 -42 56 -18 10 -57 44 -87 75 l-54 58 22 17 c12 10 19
22 15 26 -5 4 -18 -1 -29 -12 -21 -19 -22 -19 -16 1 3 11 14 47 23 80 9 33 24
70 33 81 15 20 17 20 41 5 13 -9 32 -24 42 -33z m105 -70 c31 -23 40 -34 29
-36 -16 -4 -86 44 -86 59 0 15 9 11 57 -23z m-105 -247 c17 -9 29 -25 34 -45
3 -17 10 -36 16 -43 12 -15 -34 -64 -64 -70 -103 -17 -101 -17 -96 10 3 15 1
24 -3 21 -5 -3 -9 -1 -9 5 0 5 -3 17 -7 27 -4 12 -3 15 5 10 7 -4 12 -1 12 8
0 15 -30 22 -43 10 -3 -3 2 -26 11 -51 l17 -45 -39 -34 c-41 -35 -43 -36 -169
-37 -46 0 -61 4 -77 21 -21 22 -21 22 -1 61 28 55 65 95 115 127 24 15 51 40
61 55 10 15 31 34 47 43 15 10 31 29 35 44 6 26 7 26 67 -38 34 -36 73 -71 88
-79z m-186 101 c-17 -16 -18 -16 -5 5 7 12 15 20 18 17 3 -2 -3 -12 -13 -22z
m-76 -71 c0 -8 -74 -61 -86 -61 -3 0 13 16 36 35 44 37 50 40 50 26z"/>
<path d="M5314 2259 c-3 -5 6 -9 20 -9 31 0 34 6 6 13 -11 3 -23 1 -26 -4z"/>
<path d="M4600 1737 c0 -9 11 -12 35 -9 19 2 35 8 35 13 0 5 -16 9 -35 9 -22
0 -35 -5 -35 -13z"/>
<path d="M5352 1746 c-9 -20 -7 -27 11 -43 22 -18 22 -18 5 2 -12 15 -14 25
-6 38 5 10 8 20 6 23 -3 2 -10 -7 -16 -20z"/>
<path d="M4930 1556 c0 -2 8 -10 18 -17 15 -13 16 -12 3 4 -13 16 -21 21 -21
13z"/>
<path d="M4900 1529 c-12 -9 -12 -10 4 -5 10 4 26 1 35 -6 14 -12 14 -11 2 5
-16 20 -21 21 -41 6z"/>
<path d="M4894 1489 c-3 -6 -1 -16 5 -22 19 -19 12 -31 -7 -14 -10 10 -27 17
-38 17 -16 0 -14 -4 11 -25 17 -13 33 -24 37 -25 13 0 21 44 9 48 -9 3 -9 7 0
18 8 9 8 14 1 14 -6 0 -14 -5 -18 -11z"/>
<path d="M3846 873 c-6 -14 -5 -15 5 -6 7 7 10 15 7 18 -3 3 -9 -2 -12 -12z"/>
<path d="M3990 799 c0 -5 5 -7 10 -4 6 3 10 8 10 11 0 2 -4 4 -10 4 -5 0 -10
-5 -10 -11z"/>
<path d="M3991 738 c0 -26 3 -49 7 -52 4 -2 6 12 4 32 -6 62 -10 69 -11 20z"/>
<path d="M4085 500 c-3 -6 1 -7 9 -4 18 7 21 14 7 14 -6 0 -13 -4 -16 -10z"/>
<path d="M3939 433 c-13 -16 -12 -17 4 -4 16 13 21 21 13 21 -2 0 -10 -8 -17
-17z"/>
<path d="M3628 303 c7 -3 16 -2 19 1 4 3 -2 6 -13 5 -11 0 -14 -3 -6 -6z"/>
<path d="M3728 303 c7 -3 16 -2 19 1 4 3 -2 6 -13 5 -11 0 -14 -3 -6 -6z"/>
<path d="M5053 4553 c9 -2 23 -2 30 0 6 3 -1 5 -18 5 -16 0 -22 -2 -12 -5z"/>
<path d="M6341 4434 c0 -11 3 -14 6 -6 3 7 2 16 -1 19 -3 4 -6 -2 -5 -13z"/>
<path d="M6346 4337 c3 -10 9 -15 12 -12 3 3 0 11 -7 18 -10 9 -11 8 -5 -6z"/>
<path d="M5552 4104 c10 -10 20 -15 24 -12 3 4 -5 12 -18 18 -22 12 -22 12 -6
-6z"/>
<path d="M5590 4081 c0 -5 7 -11 15 -15 8 -3 15 -1 15 3 0 5 -7 11 -15 15 -8
3 -15 1 -15 -3z"/>
<path d="M6468 4062 c-11 -13 -11 -14 0 -8 7 4 28 5 46 2 28 -5 34 -12 39 -40
6 -37 55 -122 65 -112 3 4 -4 20 -17 37 -12 16 -25 49 -29 72 -7 38 -11 42
-49 53 -36 11 -44 10 -55 -4z"/>
<path d="M6430 4041 c0 -5 7 -15 17 -22 15 -13 15 -12 4 9 -12 23 -21 28 -21
13z"/>
<path d="M6466 3987 c3 -10 9 -15 12 -12 3 3 0 11 -7 18 -10 9 -11 8 -5 -6z"/>
<path d="M5650 3950 c-9 -6 -10 -10 -3 -10 6 0 15 5 18 10 8 12 4 12 -15 0z"/>
<path d="M5391 3924 c0 -11 3 -14 6 -6 3 7 2 16 -1 19 -3 4 -6 -2 -5 -13z"/>
<path d="M5150 3850 c-9 -6 -10 -10 -3 -10 6 0 15 5 18 10 8 12 4 12 -15 0z"/>
<path d="M6566 3553 c6 -4 14 -15 17 -23 5 -11 6 -9 4 4 -1 11 -9 21 -17 23
-10 3 -11 2 -4 -4z"/>
<path d="M6505 3272 c-26 -9 -65 -35 -65 -43 0 -4 17 2 38 13 30 15 53 19 119
16 49 -2 84 1 87 7 4 11 -147 17 -179 7z"/>
<path d="M6655 3229 c-4 -6 -5 -12 -2 -15 2 -3 7 2 10 11 7 17 1 20 -8 4z"/>
<path d="M6504 3076 c-7 -16 -8 -29 -2 -38 8 -10 8 -9 4 5 -3 9 -2 17 3 17 5
0 11 9 14 20 7 28 -6 25 -19 -4z"/>
<path d="M6478 2995 c-10 -22 -9 -29 6 -43 17 -16 18 -16 6 6 -10 20 -9 27 6
43 10 11 12 19 5 19 -6 0 -17 -11 -23 -25z"/>
<path d="M6503 2915 c3 -27 16 -45 30 -45 7 0 3 7 -8 16 -11 8 -19 17 -17 20
2 2 1 10 -2 17 -2 6 -4 3 -3 -8z"/>
<path d="M5070 2703 l-55 -58 58 55 c53 50 62 60 54 60 -1 0 -27 -26 -57 -57z"/>
<path d="M5181 2674 c1 -32 5 -72 9 -89 5 -18 6 4 3 55 -6 99 -14 120 -12 34z"/>
<path d="M4970 2610 c-8 -5 -40 -10 -71 -10 -41 0 -60 -5 -72 -18 -10 -10 -17
-23 -17 -28 0 -4 7 2 16 14 13 18 25 22 73 22 35 0 65 6 77 15 21 16 17 20 -6
5z"/>
<path d="M6491 2596 c-7 -8 -8 -17 -3 -20 6 -3 12 3 15 14 6 24 4 25 -12 6z"/>
<path d="M6481 2544 c0 -11 3 -14 6 -6 3 7 2 16 -1 19 -3 4 -6 -2 -5 -13z"/>
<path d="M5185 2541 c-19 -18 -216 -121 -231 -121 -8 0 -12 -5 -9 -10 7 -11
45 -4 55 10 6 9 180 100 191 100 4 0 10 -15 12 -32 3 -22 4 -18 4 15 0 47 -5
55 -22 38z"/>
<path d="M4564 2487 c-12 -28 -20 -54 -18 -56 7 -7 14 5 19 29 10 54 38 26 30
-30 -4 -32 -4 -33 6 -10 7 18 7 35 -2 61 -6 20 -8 42 -5 48 4 6 4 11 -1 11 -4
0 -18 -24 -29 -53z"/>
<path d="M4770 2530 l-35 -7 32 -2 c17 0 35 4 38 9 3 6 5 9 3 9 -2 -1 -19 -5
-38 -9z"/>
<path d="M4617 2519 c7 -7 15 -10 18 -7 3 3 -2 9 -12 12 -14 6 -15 5 -6 -5z"/>
<path d="M4683 2523 c9 -2 25 -2 35 0 9 3 1 5 -18 5 -19 0 -27 -2 -17 -5z"/>
<path d="M6460 2481 c0 -6 5 -13 10 -16 6 -3 10 1 10 9 0 9 -4 16 -10 16 -5 0
-10 -4 -10 -9z"/>
<path d="M5225 2430 c10 -11 20 -20 23 -20 3 0 -3 9 -13 20 -10 11 -20 20 -23
20 -3 0 3 -9 13 -20z"/>
<path d="M6456 2413 c-6 -14 -5 -15 5 -6 7 7 10 15 7 18 -3 3 -9 -2 -12 -12z"/>
<path d="M4328 2373 c7 -3 16 -2 19 1 4 3 -2 6 -13 5 -11 0 -14 -3 -6 -6z"/>
<path d="M4581 2360 c0 -14 28 -72 29 -59 0 4 -7 22 -15 40 -8 19 -14 27 -14
19z"/>
<path d="M4450 2346 c0 -2 7 -7 16 -10 8 -3 12 -2 9 4 -6 10 -25 14 -25 6z"/>
<path d="M4246 2295 c-11 -8 -15 -15 -9 -15 6 0 16 7 23 15 16 19 11 19 -14 0z"/>
<path d="M9280 2289 c-7 -11 -10 -23 -7 -25 2 -2 9 7 15 21 14 30 7 33 -8 4z"/>
<path d="M9326 2288 c10 -14 21 -24 23 -22 3 3 -6 15 -18 27 l-24 22 19 -27z"/>
<path d="M4169 2283 c-13 -16 -12 -17 4 -4 16 13 21 21 13 21 -2 0 -10 -8 -17
-17z"/>
<path d="M6318 2268 c-16 -5 -28 -13 -28 -18 0 -5 14 -2 30 6 17 9 30 17 30
20 0 2 -1 4 -2 3 -2 0 -15 -5 -30 -11z"/>
<path d="M9555 2250 c-3 -6 1 -7 9 -4 18 7 21 14 7 14 -6 0 -13 -4 -16 -10z"/>
<path d="M9602 2244 c10 -10 20 -16 22 -13 3 3 -5 11 -17 18 -21 13 -21 12 -5
-5z"/>
<path d="M8891 2234 c0 -11 3 -14 6 -6 3 7 2 16 -1 19 -3 4 -6 -2 -5 -13z"/>
<path d="M9020 2220 l-25 -21 28 12 c15 7 27 16 27 21 0 11 -1 10 -30 -12z"/>
<path d="M9274 2223 c23 -27 49 -29 67 -5 11 14 11 15 -1 5 -19 -18 -40 -16
-64 5 -21 17 -21 17 -2 -5z"/>
<path d="M8874 2199 c-3 -6 -15 -9 -25 -6 -11 3 -17 1 -13 -4 9 -14 41 -10 48
6 6 17 0 20 -10 4z"/>
<path d="M8480 2165 c-7 -9 -11 -17 -9 -20 3 -2 10 5 17 15 14 24 10 26 -8 5z"/>
<path d="M9016 2165 c-11 -8 -15 -15 -9 -15 6 0 16 7 23 15 16 19 11 19 -14 0z"/>
<path d="M8804 2146 c4 -10 1 -25 -5 -32 -10 -12 -9 -13 5 -8 18 7 20 23 5 44
-9 12 -10 12 -5 -4z"/>
<path d="M8486 2117 c3 -10 9 -15 12 -12 3 3 0 11 -7 18 -10 9 -11 8 -5 -6z"/>
<path d="M9548 2123 c6 -2 18 -2 25 0 6 3 1 5 -13 5 -14 0 -19 -2 -12 -5z"/>
<path d="M9614 2110 c0 -13 4 -16 10 -10 7 7 7 13 0 20 -6 6 -10 3 -10 -10z"/>
<path d="M6335 2110 c-3 -5 1 -10 9 -10 9 0 16 5 16 10 0 6 -4 10 -9 10 -6 0
-13 -4 -16 -10z"/>
<path d="M8546 2103 c-6 -14 -5 -15 5 -6 7 7 10 15 7 18 -3 3 -9 -2 -12 -12z"/>
<path d="M4191 2074 c0 -11 3 -14 6 -6 3 7 2 16 -1 19 -3 4 -6 -2 -5 -13z"/>
<path d="M9268 2056 c-10 -7 -18 -19 -18 -27 0 -8 6 -5 15 8 8 12 25 24 38 26
19 4 19 4 2 5 -11 1 -28 -5 -37 -12z"/>
<path d="M4180 2035 c0 -8 4 -15 10 -15 5 0 7 7 4 15 -4 8 -8 15 -10 15 -2 0
-4 -7 -4 -15z"/>
<path d="M8894 2029 c-3 -6 2 -18 12 -27 17 -16 17 -16 5 0 -7 9 -10 22 -6 28
3 5 4 10 1 10 -3 0 -8 -5 -12 -11z"/>
<path d="M6220 2021 c0 -5 -16 -12 -35 -15 -19 -4 -35 -11 -35 -15 0 -12 74
15 78 28 2 6 1 11 -2 11 -3 0 -6 -4 -6 -9z"/>
<path d="M4202 2011 c-11 -7 -11 -9 2 -14 9 -4 16 -13 16 -21 0 -20 17 -29 26
-14 4 7 3 9 -2 5 -5 -5 -13 5 -19 22 -7 22 -14 28 -23 22z"/>
<path d="M9078 2003 c-20 -24 -41 -64 -35 -69 2 -3 10 9 17 26 7 17 20 35 29
39 9 5 13 12 10 15 -3 4 -13 -2 -21 -11z"/>
<path d="M9296 2004 c-5 -14 -4 -15 9 -4 17 14 19 20 6 20 -5 0 -12 -7 -15
-16z"/>
<path d="M8990 2000 c-21 -7 -21 -8 -5 -9 11 0 27 4 35 9 18 11 5 11 -30 0z"/>
<path d="M5910 1990 c-8 -5 -12 -11 -9 -14 2 -3 11 -1 19 4 8 5 12 11 9 14 -2
3 -11 1 -19 -4z"/>
<path d="M8689 1963 l-24 -28 28 24 c15 14 27 26 27 28 0 8 -8 1 -31 -24z"/>
<path d="M5870 1955 c-8 -9 -8 -15 -2 -15 12 0 26 19 19 26 -2 2 -10 -2 -17
-11z"/>
<path d="M9599 1953 c-12 -16 -12 -17 1 -7 8 6 22 14 30 17 13 5 12 6 -1 6 -9
1 -23 -7 -30 -16z"/>
<path d="M9698 1963 c18 -4 23 -9 19 -25 -4 -15 -3 -18 5 -10 16 16 1 42 -24
41 l-23 -2 23 -4z"/>
<path d="M8739 1943 c-13 -16 -12 -17 4 -4 16 13 21 21 13 21 -2 0 -10 -8 -17
-17z"/>
<path d="M4260 1944 c8 -4 28 -20 43 -38 l29 -31 -19 35 c-13 24 -27 36 -44
37 -13 1 -17 0 -9 -3z"/>
<path d="M5998 1943 c7 -3 16 -2 19 1 4 3 -2 6 -13 5 -11 0 -14 -3 -6 -6z"/>
<path d="M9075 1902 c-18 -37 -18 -37 -26 -12 l-8 25 2 -25 c1 -14 7 -25 12
-24 11 1 50 63 43 69 -2 3 -13 -12 -23 -33z"/>
<path d="M5870 1905 c-30 -12 -56 -27 -57 -32 -2 -5 24 3 57 19 33 16 60 31
60 34 0 2 -1 4 -2 3 -2 0 -28 -11 -58 -24z"/>
<path d="M8650 1918 c0 -20 25 -24 36 -6 5 7 3 8 -6 3 -7 -4 -16 -2 -21 6 -7
11 -9 10 -9 -3z"/>
<path d="M9320 1926 c0 -2 8 -10 18 -17 15 -13 16 -12 3 4 -13 16 -21 21 -21
13z"/>
<path d="M9633 1913 c9 -2 25 -2 35 0 9 3 1 5 -18 5 -19 0 -27 -2 -17 -5z"/>
<path d="M8749 1893 c-13 -17 -13 -17 6 -3 11 8 22 16 24 17 2 2 0 3 -6 3 -6
0 -17 -8 -24 -17z"/>
<path d="M8801 1877 c-13 -21 -12 -21 5 -5 10 10 16 20 13 22 -3 3 -11 -5 -18
-17z"/>
<path d="M9361 1884 c0 -11 3 -14 6 -6 3 7 2 16 -1 19 -3 4 -6 -2 -5 -13z"/>
<path d="M9290 1883 c0 -13 29 -38 35 -31 3 3 -4 13 -15 23 -11 10 -20 13 -20
8z"/>
<path d="M9505 1870 c-3 -5 -1 -10 4 -10 6 0 11 5 11 10 0 6 -2 10 -4 10 -3 0
-8 -4 -11 -10z"/>
<path d="M9545 1846 c10 -14 19 -26 22 -26 7 0 -17 39 -28 46 -6 3 -3 -5 6
-20z"/>
<path d="M8699 1843 c-13 -16 -12 -17 4 -4 16 13 21 21 13 21 -2 0 -10 -8 -17
-17z"/>
<path d="M9435 1849 c-11 -17 1 -21 15 -4 8 9 8 15 2 15 -6 0 -14 -5 -17 -11z"/>
<path d="M4064 1814 c-18 -15 -18 -15 3 -5 31 16 54 13 70 -6 13 -16 13 -16 3
5 -13 26 -47 29 -76 6z"/>
<path d="M5796 1817 c3 -10 9 -15 12 -12 3 3 0 11 -7 18 -10 9 -11 8 -5 -6z"/>
<path d="M8715 1819 c-4 -6 -14 -8 -24 -4 -13 5 -14 4 -3 -6 10 -11 15 -10 29
4 10 9 14 17 11 17 -4 0 -10 -5 -13 -11z"/>
<path d="M9835 1809 c-4 -6 -5 -12 -2 -15 2 -3 7 2 10 11 7 17 1 20 -8 4z"/>
<path d="M4018 1793 c7 -3 16 -2 19 1 4 3 -2 6 -13 5 -11 0 -14 -3 -6 -6z"/>
<path d="M3854 1768 c-19 -23 -19 -23 1 -7 11 9 27 19 35 22 13 5 13 6 -1 6
-9 1 -24 -9 -35 -21z"/>
<path d="M3978 1783 c7 -3 16 -2 19 1 4 3 -2 6 -13 5 -11 0 -14 -3 -6 -6z"/>
<path d="M4381 1769 c-1 -14 6 -34 15 -45 8 -10 12 -13 8 -5 -4 8 -11 28 -15
45 -6 29 -7 29 -8 5z"/>
<path d="M5730 1780 c-8 -5 -12 -11 -9 -14 2 -3 11 -1 19 4 8 5 12 11 9 14 -2
3 -11 1 -19 -4z"/>
<path d="M3624 1768 c-4 -7 -4 -10 1 -6 4 4 14 3 22 -4 11 -8 12 -7 7 6 -7 19
-20 21 -30 4z"/>
<path d="M3918 1773 c6 -2 18 -2 25 0 6 3 1 5 -13 5 -14 0 -19 -2 -12 -5z"/>
<path d="M9673 1770 c2 -9 17 -16 38 -16 31 -2 31 -1 4 3 -16 3 -34 10 -38 16
-6 8 -7 7 -4 -3z"/>
<path d="M9257 1750 c3 -12 -2 -29 -12 -40 -9 -10 -15 -25 -12 -32 4 -9 6 -8
6 3 1 9 8 22 16 29 17 14 20 46 6 54 -5 4 -7 -3 -4 -14z"/>
<path d="M5660 1748 c0 -4 4 -8 9 -8 6 0 12 4 15 8 3 5 -1 9 -9 9 -8 0 -15 -4
-15 -9z"/>
<path d="M9210 1740 c-6 -11 -8 -20 -6 -20 3 0 10 9 16 20 6 11 8 20 6 20 -3
0 -10 -9 -16 -20z"/>
<path d="M3593 1735 c-3 -9 -3 -18 -1 -21 3 -3 8 4 11 16 6 23 -1 27 -10 5z"/>
<path d="M3678 1743 c6 -2 18 -2 25 0 6 3 1 5 -13 5 -14 0 -19 -2 -12 -5z"/>
<path d="M3728 1733 c6 -2 18 -2 25 0 6 3 1 5 -13 5 -14 0 -19 -2 -12 -5z"/>
<path d="M4240 1718 c-9 -20 -9 -20 2 -6 12 16 15 15 43 -10 l30 -27 -29 33
c-17 17 -31 32 -33 32 -1 0 -7 -10 -13 -22z"/>
<path d="M9351 1728 c-1 -22 18 -33 32 -19 9 9 8 11 -5 6 -11 -4 -18 0 -21 12
-4 15 -5 16 -6 1z"/>
<path d="M3770 1726 c0 -2 8 -10 18 -17 15 -13 16 -12 3 4 -13 16 -21 21 -21
13z"/>
<path d="M4180 1723 c0 -6 8 -17 18 -24 16 -13 16 -13 2 6 -8 11 -16 22 -17
24 -2 2 -3 0 -3 -6z"/>
<path d="M8950 1695 c-11 -13 -11 -18 0 -28 10 -9 11 -9 6 1 -4 7 -2 19 4 27
7 8 10 15 7 15 -2 0 -10 -7 -17 -15z"/>
<path d="M8859 1673 c-11 -15 -11 -16 1 -5 19 17 33 15 26 -4 -3 -8 -2 -12 4
-9 15 9 12 35 -4 35 -7 0 -20 -8 -27 -17z"/>
<path d="M3620 1651 c7 -12 10 -32 7 -42 -3 -10 -1 -17 4 -13 14 8 11 38 -7
60 -14 18 -15 18 -4 -5z"/>
<path d="M4410 1661 c0 -5 5 -13 10 -16 6 -3 10 -2 10 4 0 5 -4 13 -10 16 -5
3 -10 2 -10 -4z"/>
<path d="M9180 1661 c0 -6 4 -13 10 -16 6 -3 7 1 4 9 -7 18 -14 21 -14 7z"/>
<path d="M8835 1640 c-3 -5 -3 -14 0 -20 8 -12 32 -13 39 -1 4 5 -4 7 -16 3
-17 -4 -20 -2 -15 11 7 19 2 23 -8 7z"/>
<path d="M8903 1625 c-3 -9 -3 -18 -1 -21 3 -3 8 4 11 16 6 23 -1 27 -10 5z"/>
<path d="M5486 1603 c-6 -14 -5 -15 5 -6 7 7 10 15 7 18 -3 3 -9 -2 -12 -12z"/>
<path d="M8950 1616 c0 -2 9 -6 20 -9 11 -3 18 -1 14 4 -5 9 -34 13 -34 5z"/>
<path d="M9486 1599 c-17 -14 -26 -29 -25 -47 1 -27 1 -27 8 3 3 18 15 34 29
40 12 5 22 13 22 17 0 12 -5 10 -34 -13z"/>
<path d="M3568 1569 c-21 -10 -42 -29 -48 -42 l-11 -22 18 21 c10 12 33 29 51
38 17 9 32 19 32 21 0 7 0 7 -42 -16z"/>
<path d="M4415 1559 c-27 -15 -68 -37 -90 -48 -22 -11 -59 -36 -82 -54 -24
-20 -59 -37 -81 -41 -21 -3 -47 -15 -57 -26 -10 -11 -24 -20 -31 -20 -7 0 -18
-9 -24 -20 -7 -14 -7 -20 0 -20 5 0 10 7 10 15 0 8 8 15 18 15 10 0 25 9 34
19 9 11 34 23 55 27 21 4 48 14 61 22 25 16 30 1 6 -18 -8 -8 -20 -23 -25 -34
-6 -12 3 -5 20 14 17 19 29 41 28 49 -1 8 18 25 42 38 25 13 52 29 60 37 9 7
37 24 64 36 26 13 47 27 47 32 0 4 -1 7 -2 7 -2 -1 -25 -14 -53 -30z"/>
<path d="M8910 1586 c0 -2 8 -10 18 -17 15 -13 16 -12 3 4 -13 16 -21 21 -21
13z"/>
<path d="M8976 1573 c-6 -14 -5 -15 5 -6 7 7 10 15 7 18 -3 3 -9 -2 -12 -12z"/>
<path d="M9497 1563 c-11 -13 -17 -27 -14 -30 3 -2 13 7 23 21 22 34 15 42 -9
9z"/>
<path d="M8961 1504 c-28 -35 -27 -56 1 -52 12 2 23 9 24 16 1 7 0 8 -3 2 -6
-12 -33 -13 -33 -1 0 4 9 20 21 35 11 14 18 26 15 26 -2 0 -14 -12 -25 -26z"/>
<path d="M4073 1496 c-89 -23 -141 -52 -63 -35 24 6 48 13 54 17 13 8 9 7 64
17 23 4 42 11 42 16 0 11 4 11 -97 -15z"/>
<path d="M3489 1483 c-13 -16 -12 -17 4 -4 16 13 21 21 13 21 -2 0 -10 -8 -17
-17z"/>
<path d="M5394 1480 c-13 -13 -82 -17 -111 -7 -14 5 -23 4 -23 -1 0 -13 36
-22 91 -22 38 0 48 4 52 20 6 23 5 24 -9 10z"/>
<path d="M3257 1448 c-36 -48 -38 -56 -26 -64 7 -4 9 -3 6 3 -3 5 5 26 18 46
20 28 33 37 62 40 l38 4 -37 1 c-31 2 -41 -3 -61 -30z"/>
<path d="M9150 1476 c0 -3 9 -10 20 -16 11 -6 20 -8 20 -6 0 3 -9 10 -20 16
-11 6 -20 8 -20 6z"/>
<path d="M5420 1450 c20 -13 33 -13 25 0 -3 6 -14 10 -23 10 -15 0 -15 -2 -2
-10z"/>
<path d="M5337 1429 c-10 -6 -30 -8 -45 -5 -26 5 -26 5 -4 -6 18 -9 29 -8 55
5 18 9 28 16 22 16 -5 0 -18 -4 -28 -10z"/>
<path d="M9014 1426 c-3 -8 -1 -22 4 -32 7 -13 9 -10 8 15 -1 34 -4 38 -12 17z"/>
<path d="M9190 1434 c0 -5 7 -18 15 -28 8 -11 15 -16 15 -10 0 5 -7 18 -15 28
-8 11 -15 16 -15 10z"/>
<path d="M5080 1426 c0 -9 30 -14 35 -6 4 6 -3 10 -14 10 -12 0 -21 -2 -21 -4z"/>
<path d="M5132 1418 c-15 -15 -16 -31 0 -22 7 5 9 2 6 -8 -4 -10 4 -20 27 -31
34 -16 34 -16 55 13 12 17 31 30 43 31 21 0 21 1 2 9 -23 9 -51 -11 -61 -43
-6 -18 -7 -19 -16 -3 -5 9 -14 13 -20 10 -7 -5 -9 0 -6 14 7 27 -13 47 -30 30z"/>
<path d="M2853 1385 c-3 -9 -3 -18 -1 -21 3 -3 8 4 11 16 6 23 -1 27 -10 5z"/>
<path d="M2895 1380 c10 -11 20 -20 23 -20 3 0 -3 9 -13 20 -10 11 -20 20 -23
20 -3 0 3 -9 13 -20z"/>
<path d="M3241 1368 c-10 -16 -10 -23 0 -32 9 -8 10 -8 5 2 -4 7 -2 20 5 28 6
8 10 16 8 19 -3 2 -11 -5 -18 -17z"/>
<path d="M4974 1382 c4 -7 3 -12 -1 -12 -5 0 -18 -7 -29 -15 -17 -13 -16 -13
14 -3 34 13 39 22 20 34 -7 4 -8 3 -4 -4z"/>
<path d="M5061 1343 c-1 -32 11 -34 42 -7 16 13 24 24 19 24 -5 0 -17 -9 -28
-21 l-19 -21 -6 24 c-7 22 -7 22 -8 1z"/>
<path d="M2932 1298 c-1 -25 -5 -55 -8 -65 -5 -17 -5 -17 6 0 6 9 9 39 7 65
l-3 47 -2 -47z"/>
<path d="M2770 1311 c0 -6 4 -13 10 -16 6 -3 7 1 4 9 -7 18 -14 21 -14 7z"/>
<path d="M3250 1311 c0 -6 9 -15 20 -21 11 -6 21 -21 21 -33 1 -19 2 -19 6 -3
3 12 -5 28 -21 43 -14 13 -26 19 -26 14z"/>
<path d="M4808 1293 c7 -3 16 -2 19 1 4 3 -2 6 -13 5 -11 0 -14 -3 -6 -6z"/>
<path d="M4826 1257 c3 -10 9 -15 12 -12 3 3 0 11 -7 18 -10 9 -11 8 -5 -6z"/>
<path d="M2836 1247 c3 -10 9 -15 12 -12 3 3 0 11 -7 18 -10 9 -11 8 -5 -6z"/>
<path d="M3364 1238 l-19 -23 25 20 c14 11 27 21 29 22 2 2 0 3 -6 3 -5 0 -18
-10 -29 -22z"/>
<path d="M4845 1205 c17 -14 18 -18 6 -38 -13 -20 -13 -21 2 -8 23 19 21 38
-5 51 -22 11 -22 11 -3 -5z"/>
<path d="M2862 1180 c0 -14 2 -19 5 -12 2 6 2 18 0 25 -3 6 -5 1 -5 -13z"/>
<path d="M3295 1190 c-3 -6 1 -7 9 -4 18 7 21 14 7 14 -6 0 -13 -4 -16 -10z"/>
<path d="M4577 1170 c7 -8 20 -15 29 -16 9 -1 13 1 9 4 -4 4 -10 7 -13 7 -4 0
-14 4 -22 9 -12 7 -13 6 -3 -4z"/>
<path d="M4784 1138 c-4 -6 -3 -8 4 -4 5 3 12 0 15 -6 3 -10 8 -10 18 1 9 9 9
11 2 7 -7 -4 -13 -2 -13 3 0 15 -17 14 -26 -1z"/>
<path d="M2871 1124 c0 -11 3 -14 6 -6 3 7 2 16 -1 19 -3 4 -6 -2 -5 -13z"/>
<path d="M4484 1128 c1 -8 37 -46 80 -84 43 -38 84 -80 92 -94 10 -19 13 -21
14 -7 0 9 -9 26 -19 36 -11 11 -17 22 -14 25 4 3 -10 12 -29 21 -20 8 -56 38
-81 66 -25 29 -45 45 -43 37z"/>
<path d="M4619 1117 c25 -27 43 -39 22 -14 -6 8 -7 18 -3 23 4 5 3 6 -2 2 -5
-4 -16 -2 -25 4 -9 7 -5 0 8 -15z"/>
<path d="M4550 1097 c19 -21 40 -35 46 -33 12 5 57 -27 50 -35 -2 -2 12 -5 32
-7 37 -2 88 -42 74 -57 -4 -4 3 -2 15 6 23 14 21 34 -3 25 -8 -3 -14 1 -14 9
0 8 -4 15 -10 15 -5 0 -10 5 -10 11 0 5 6 7 13 3 6 -4 8 -3 4 2 -4 4 -23 7
-42 5 -23 -2 -40 4 -54 18 -12 12 -35 23 -51 24 -17 2 -43 15 -58 28 -17 15
-14 10 8 -14z"/>
<path d="M3635 1096 c10 -14 19 -26 22 -26 7 0 -17 39 -28 46 -6 3 -3 -5 6
-20z"/>
<path d="M4771 1113 c-1 -6 -4 -20 -7 -30 -5 -17 -5 -17 6 0 6 10 9 23 6 30
-3 9 -5 9 -5 0z"/>
<path d="M2901 1094 c0 -11 3 -14 6 -6 3 7 2 16 -1 19 -3 4 -6 -2 -5 -13z"/>
<path d="M4696 1090 c5 -8 9 -18 9 -22 0 -3 3 -9 7 -13 3 -4 5 0 4 9 -1 9 -8
22 -16 29 -10 10 -11 9 -4 -3z"/>
<path d="M3657 1033 c-3 -16 -1 -35 4 -43 6 -10 8 -2 9 28 0 48 -5 55 -13 15z"/>
<path d="M3626 1042 c-3 -5 1 -9 9 -9 8 0 12 4 9 9 -3 4 -7 8 -9 8 -2 0 -6 -4
-9 -8z"/>
<path d="M3579 1003 l-24 -28 28 24 c15 14 27 26 27 28 0 8 -8 1 -31 -24z"/>
<path d="M4685 980 c10 -11 20 -20 23 -20 3 0 -3 9 -13 20 -10 11 -20 20 -23
20 -3 0 3 -9 13 -20z"/>
<path d="M4670 916 c0 -3 9 -10 20 -16 11 -6 20 -8 20 -6 0 3 -9 10 -20 16
-11 6 -20 8 -20 6z"/>
<path d="M3482 890 c0 -14 2 -19 5 -12 2 6 2 18 0 25 -3 6 -5 1 -5 -13z"/>
<path d="M4377 854 c-3 -3 8 -28 25 -56 23 -37 35 -48 49 -45 12 3 19 0 19 -9
0 -8 7 -14 16 -14 13 0 13 2 -2 18 -10 9 -21 17 -25 17 -4 0 -11 4 -16 9 -4 5
-3 7 2 3 6 -3 17 -2 25 4 12 7 11 9 -5 10 -11 1 -26 2 -34 3 -7 0 -21 16 -31
33 -9 18 -20 30 -23 27z"/>
<path d="M4415 830 c10 -11 20 -20 23 -20 3 0 -3 9 -13 20 -10 11 -20 20 -23
20 -3 0 3 -9 13 -20z"/>
<path d="M4701 834 c0 -11 3 -14 6 -6 3 7 2 16 -1 19 -3 4 -6 -2 -5 -13z"/>
<path d="M3472 805 c0 -16 2 -22 5 -12 2 9 2 23 0 30 -3 6 -5 -1 -5 -18z"/>
<path d="M4374 795 c7 -20 69 -104 77 -105 3 0 4 12 1 28 -3 15 -7 21 -10 14
-2 -7 -17 7 -33 33 -28 44 -47 60 -35 30z"/>
<path d="M4496 767 c3 -10 9 -15 12 -12 3 3 0 11 -7 18 -10 9 -11 8 -5 -6z"/>
<path d="M4559 768 c14 -19 56 -24 65 -9 3 4 -6 6 -19 3 -14 -2 -33 2 -43 9
-15 13 -16 12 -3 -3z"/>
<path d="M4230 760 c0 -5 4 -10 8 -10 5 0 17 -8 28 -19 11 -10 30 -23 42 -30
14 -8 19 -17 15 -29 -9 -23 -29 -42 -37 -35 -3 4 -6 1 -6 -6 0 -8 6 -11 16 -7
9 3 17 6 20 6 2 0 10 13 19 29 13 27 13 31 -1 45 -8 9 -19 16 -23 16 -5 0 -20
11 -35 25 -28 26 -46 32 -46 15z"/>
<path d="M3617 730 c55 -33 135 -72 139 -67 3 2 -31 23 -75 46 -82 43 -119 55
-64 21z"/>
<path d="M3506 731 c-4 -5 3 -7 14 -4 23 6 26 13 6 13 -8 0 -17 -4 -20 -9z"/>
<path d="M3463 645 c0 -44 2 -61 4 -37 2 23 2 59 0 80 -2 20 -4 1 -4 -43z"/>
<path d="M4455 600 c3 -5 8 -10 11 -10 2 0 4 5 4 10 0 6 -5 10 -11 10 -5 0 -7
-4 -4 -10z"/>
<path d="M3453 455 c0 -22 2 -30 4 -17 2 12 2 30 0 40 -3 9 -5 -1 -4 -23z"/>
<path d="M3452 330 c0 -14 2 -19 5 -12 2 6 2 18 0 25 -3 6 -5 1 -5 -13z"/>
<path d="M3504 281 c-28 -23 -67 -98 -55 -106 5 -3 12 4 16 14 3 11 11 19 18
17 7 -1 9 -1 5 1 -5 3 -8 9 -8 13 0 13 46 60 58 60 6 0 14 5 17 10 10 17 -29
10 -51 -9z"/>
<path d="M3559 233 c-1 -5 -2 -40 -4 -79 -1 -38 -5 -75 -9 -82 -5 -8 -2 -10 8
-6 12 5 16 21 15 69 -1 34 2 72 6 84 4 12 2 21 -4 21 -6 0 -12 -3 -12 -7z"/>
<path d="M3789 203 c-13 -16 -12 -17 4 -4 9 7 17 15 17 17 0 8 -8 3 -21 -13z"/>
<path d="M3530 182 c0 -7 -11 -12 -25 -12 -14 0 -25 -4 -25 -9 0 -11 48 -2 56
11 3 5 3 12 0 15 -3 4 -6 1 -6 -5z"/>
<path d="M3748 183 c7 -3 16 -2 19 1 4 3 -2 6 -13 5 -11 0 -14 -3 -6 -6z"/>
<path d="M4761 172 c-1 -7 -5 -11 -10 -7 -5 3 -13 0 -17 -6 -4 -8 -3 -9 4 -5
8 4 12 0 12 -11 1 -17 1 -17 11 0 6 10 8 23 5 30 -3 9 -5 8 -5 -1z"/>
<path d="M3485 140 c-4 -6 7 -10 24 -10 17 0 31 5 31 10 0 6 -11 10 -24 10
-14 0 -28 -4 -31 -10z"/>
<path d="M3664 108 l-19 -23 23 19 c12 11 22 21 22 23 0 8 -8 2 -26 -19z"/>
<path d="M4720 114 c0 -14 -2 -15 -17 -3 -16 13 -17 12 -4 -3 18 -23 27 -23
34 2 3 11 1 20 -4 20 -5 0 -9 -7 -9 -16z"/>
<path d="M3397 69 c7 -7 15 -10 18 -7 3 3 -2 9 -12 12 -14 6 -15 5 -6 -5z"/>
</g>
</svg>
